<svg xmlns="http://www.w3.org/2000/svg" id="Layer_1" height="512" viewBox="0 0 66 66" width="512"><g><path d="m62.57 14.13-2.81-.69c-.27-1.14-.72-2.21-1.32-3.18l1.5-2.48c.19-.32.14-.73-.12-.99l-1.42-1.42c-.26-.26-.67-.31-.99-.12l-2.48 1.5c-.97-.6-2.04-1.05-3.18-1.32l-.69-2.81c-.1-.37-.42-.62-.79-.62h-2.01c-.37 0-.7.25-.78.61l-.69 2.81c-1.14.27-2.21.72-3.18 1.32l-2.48-1.5c-.32-.19-.73-.14-.99.12l-1.44 1.43c-.26.26-.31.67-.12.99l1.5 2.48c-.6.97-1.05 2.04-1.32 3.18l-2.81.69c-.36.09-.61.41-.61.78v2.01c0 .37.25.7.61.78l2.81.69c.27 1.14.72 2.21 1.32 3.17l-1.5 2.48c-.19.32-.14.73.12.99l1.42 1.42c.26.26.67.31.99.12l2.48-1.5c.97.6 2.04 1.05 3.18 1.32l.69 2.81c.09.36.41.61.78.61h2.01c.37 0 .7-.25.78-.61l.69-2.81c1.14-.27 2.21-.72 3.18-1.32l2.48 1.5c.32.19.73.14.99-.12l1.42-1.42c.26-.26.31-.67.12-.99l-1.5-2.48c.6-.97 1.05-2.04 1.32-3.17l2.81-.69c.36-.09.61-.41.61-.78v-2.01c.03-.37-.22-.69-.58-.78zm-13.31 7.62c-3.22 0-5.83-2.61-5.83-5.83s2.61-5.83 5.83-5.83 5.83 2.61 5.83 5.83-2.61 5.83-5.83 5.83z" fill="#ff4823"></path><path d="m51.37 19.82c0-1.11-.9-2.01-2.01-2.01h-45.37c-1.11 0-2.01.9-2.01 2.01v27.37h49.39z" fill="#009aff"></path><path d="m49.36 17.81h-27.48c0 2.21 1.79 4 4 4h21.49v5.36c0 2.21 1.79 4 4 4v-11.35c0-1.11-.9-2.01-2.01-2.01z" fill="#fff" opacity=".35"></path><path d="m1.98 47.19v6.61c0 1.11.9 2.01 2.01 2.01h45.37c1.11 0 2.01-.9 2.01-2.01v-6.61z" fill="#e6e9ee"></path><path d="m39.97 49.87c-17.75 0-32.13-14.39-32.13-32.13h-3.85c-1.11 0-2.01.9-2.01 2.01v33.97c0 1.11.9 2.01 2.01 2.01h45.36c1.11 0 2.01-.9 2.01-2.01v-3.85z" opacity=".1"></path><path d="m19.32 55.81h14.71v4.17h-14.71z" fill="#aab2bd"></path><path d="m38.16 59.98h-22.96c-1.11 0-2.01.9-2.01 2.01v2.01h26.98v-2.01c0-1.11-.9-2.01-2.01-2.01z" fill="#e6e9ee"></path><path d="m61.91 29.48h-29.37c-1.11 0-2.01.9-2.01 2.01v4.62h33.4v-4.62c-.01-1.11-.91-2.01-2.02-2.01z" fill="#fec200"></path><path d="m37.25 33.86c-2.42 0-4.38-1.96-4.38-4.38h-.25c-1.11 0-2.01.9-2.01 2.01v4.62h33.4v-2.26h-26.76z" opacity=".1"></path><g><g><g><path d="m10.42 34.72c-.26 0-.51-.1-.71-.29l-3.4-3.4c-.19-.19-.29-.44-.29-.71s.11-.52.29-.71l3.4-3.4c.39-.39 1.02-.39 1.41 0s.39 1.02 0 1.41l-2.7 2.7 2.7 2.7c.39.39.39 1.02 0 1.41-.19.2-.45.29-.7.29z" fill="#fff"></path></g><g><path d="m20.7 34.72c-.26 0-.51-.1-.71-.29-.39-.39-.39-1.02 0-1.41l2.7-2.7-2.7-2.7c-.39-.39-.39-1.02 0-1.41s1.02-.39 1.41 0l3.4 3.4c.19.19.29.44.29.71s-.11.52-.29.71l-3.4 3.4c-.19.2-.44.29-.7.29z" fill="#fff"></path></g></g><g><path d="m12.54 37.8c-.14 0-.29-.03-.42-.09-.5-.23-.72-.83-.48-1.33l6.04-12.95c.23-.5.83-.72 1.33-.48.5.23.72.83.48 1.33l-6.04 12.95c-.17.35-.53.57-.91.57z" fill="#fff"></path></g></g><path d="m30.53 36.12v25.87c0 1.11.9 2.01 2.01 2.01h29.38c1.11 0 2.01-.9 2.01-2.01v-25.87z" fill="#5d5b68"></path><path d="m58.9 40.14h-23.35c-.55 0-1 .45-1 1v9.28c0 .55.45 1 1 1h23.35c.55 0 1-.45 1-1v-9.28c0-.56-.44-1-1-1z" fill="#ff4823"></path><path d="m59.9 50.42v-.09l-10.22-4.55 10.22-4.55v-.1c0-.55-.45-1-1-1h-1.46l-10.22 4.55-10.22-4.55h-1.46c-.55 0-1 .45-1 1v.1l10.22 4.55-10.22 4.55v.09c0 .55.45 1 1 1h1.46l10.22-4.55 10.22 4.55h1.46c.56 0 1-.45 1-1z" opacity=".1"></path><g fill="#fff"><circle cx="34.82" cy="32.8" r="1.01"></circle><circle cx="38.44" cy="32.8" r="1.01"></circle><circle cx="42.06" cy="32.8" r="1.01"></circle></g><g><g><path d="m44.18 56.7h-9.64c-.55 0-1-.45-1-1s.45-1 1-1h9.64c.55 0 1 .45 1 1s-.45 1-1 1z" fill="#fff"></path></g><g><path d="m39.15 61.14h-4.61c-.55 0-1-.45-1-1s.45-1 1-1h4.61c.55 0 1 .45 1 1s-.45 1-1 1z" fill="#fff"></path></g></g><g><g><path d="m59.9 56.86h-9.64c-.55 0-1-.45-1-1s.45-1 1-1h9.64c.55 0 1 .45 1 1s-.44 1-1 1z" fill="#fff"></path></g><g><path d="m54.87 61.14h-4.61c-.55 0-1-.45-1-1s.45-1 1-1h4.61c.55 0 1 .45 1 1s-.44 1-1 1z" fill="#fff"></path></g></g><circle cx="26.68" cy="51.5" fill="#009aff" r="1.01"></circle><path d="m58.41 58.75c-12.5 0-22.64-10.14-22.64-22.64h-5.25v25.87c0 1.11.9 2.01 2.01 2.01h29.38c1.11 0 2.01-.9 2.01-2.01v-3.24h-5.51z" opacity=".1"></path></g></svg>