<svg xmlns="http://www.w3.org/2000/svg" id="Capa_1" height="512" viewBox="0 0 512 512" width="512"><g><g><path d="m147.054 116.364c-41.34 104.139-44.135 221.803 6.682 318.061h296.203c34.278 0 62.061-27.782 62.061-62.061v-256c-7.936-22.294-354.352-22.758-364.946 0z" fill="#def5ff"></path><path d="m147.054 116.364c-50.556-21.134-99.777-23.92-147.054 0v256c0 34.278 27.782 62.061 62.061 62.061h91.676c-21.219-100.801-24.06-217.585-6.683-318.061z" fill="#c4e8fe"></path><path d="m449.939 0c-4.912 0-262.174 0-269.892 0-36.828 32.71-51.674 72.177-32.993 116.364h364.946v-54.303c0-34.279-27.783-62.061-62.061-62.061z" fill="#565f85"></path><path d="m62.061 0c-34.279 0-62.061 27.782-62.061 62.061v54.303h147.054c7.642-44.189 18.895-83.656 32.993-116.364z" fill="#3d3e65"></path><path d="m326.066 474.329v-281.507c0-20.811-16.86-37.671-37.671-37.671h-146.966c-40.371 112.578-35.29 248.03 33.417 356.849h113.55c20.811 0 37.67-16.86 37.67-37.671z" fill="#7addff"></path><path d="m141.429 155.152h-41.449c-20.811 0-37.671 16.86-37.671 37.671v281.507c0 20.81 16.86 37.67 37.671 37.67h74.866c-37.204-108.67-46.753-244.149-33.417-356.848z" fill="#21cbfc"></path><path d="m287.279 217.212c0-8.564-6.951-15.515-15.515-15.515h-120.491c-16.808 0-20.945 6.951-20.945 15.515s0 15.515 20.945 15.515h120.491c8.55 0 15.515-6.95 15.515-15.515z" fill="#fae27a"></path><path d="m135.758 217.212c0-8.566 6.951-15.515 15.515-15.515h-34.661c-8.567 0-15.515 6.951-15.515 15.515s6.94 15.515 15.515 15.515h34.661c-8.575 0-15.515-6.95-15.515-15.515z" fill="#ffd05c"></path><ellipse cx="58.182" cy="58.182" fill="#55e579" rx="19.394" ry="19.394" transform="matrix(.707 -.707 .707 .707 -24.1 58.182)"></ellipse><ellipse cx="135.758" cy="58.182" fill="#fae27a" rx="19.394" ry="19.394" transform="matrix(.23 -.973 .973 .23 47.941 176.94)"></ellipse><circle cx="221.091" cy="58.182" fill="#ff8b8b" r="19.394"></circle><path d="m473.212 58.182c0-10.716-8.678-19.394-19.394-19.394h-116.283c-22.448 0-23.624 8.678-23.624 19.394s.53 19.394 23.624 19.394h116.284c10.713 0 19.393-8.678 19.393-19.394z" fill="#def5ff"></path><path d="m318.141 58.182c0-10.714 8.678-19.394 19.394-19.394h-38.868c-10.714 0-19.394 8.678-19.394 19.394s8.678 19.394 19.394 19.394h38.868c-10.716 0-19.394-8.678-19.394-19.394z" fill="#c4e8fe"></path><path d="m287.279 287.03c4.284 0 7.758-3.473 7.758-7.758s-3.473-7.758-7.758-7.758h-151.423c-5.942 5.138-5.838 10.312.416 15.515h151.007z" fill="#21cbfc"></path><path d="m101.097 279.273c0 4.285 3.473 7.758 7.758 7.758h27.417c-.181-5.195-.323-10.369-.416-15.515h-27.002c-4.284-.001-7.757 3.472-7.757 7.757z" fill="#21b8fc"></path><path d="m301.501 318.061h-163.633c-10.42 5.139-10.091 10.31 1.193 15.515h162.44c4.284 0 7.758-3.473 7.758-7.758s-3.474-7.757-7.758-7.757z" fill="#21cbfc"></path><path d="m108.854 318.061c-4.284 0-7.758 3.473-7.758 7.758s3.473 7.758 7.758 7.758h30.207c-.44-5.14-.838-10.312-1.193-15.515h-29.014z" fill="#21b8fc"></path><path d="m264.75 380.121c4.284 0 7.758-3.473 7.758-7.758s-3.473-7.757-7.758-7.757h-122.489c-6.452 5.582-5.255 10.729 2.019 15.515z" fill="#21cbfc"></path><path d="m101.097 372.364c0 4.285 3.473 7.758 7.758 7.758h35.426c-.716-5.129-1.388-10.303-2.019-15.515h-33.407c-4.285-.001-7.758 3.472-7.758 7.757z" fill="#21b8fc"></path><path d="m256.129 426.667 8.663-13.576-6.672-1.939h-108.901c-10.131 6.59-6.735 11.464 2.936 15.515z" fill="#21cbfc"></path><path d="m101.097 418.909c0 4.285 3.473 7.758 7.758 7.758h43.301c-1.022-5.118-2.001-10.29-2.936-15.515h-40.365c-4.285-.001-7.758 3.472-7.758 7.757z" fill="#21b8fc"></path><path d="m201.945 473.212c4.284 0 7.758-3.473 7.758-7.758s-3.473-7.758-7.758-7.758h-42.908c-8.451 5.246-6.98 10.417 3.995 15.515h38.913z" fill="#21cbfc"></path><path d="m101.097 465.454c0 4.285 3.473 7.758 7.758 7.758h54.178c-1.377-5.1-2.71-10.271-3.995-15.515h-50.183c-4.285 0-7.758 3.473-7.758 7.757z" fill="#21b8fc"></path><path d="m411.154 272.572 23.8-30.637-11.028-21.922-19.671-1.933c-15.918 7.613-19.805 14.914-23.802 30.63l8.105 17.646z" fill="#7addff"></path><path d="m385.957 203.86-23.8 30.627 5.202 14.932 13.094-.71c9.18-11.814 14.194-18.266 23.802-30.63l-3.543-14.283z" fill="#21cbfc"></path><path d="m446.769 195.002c-16.449-10.23-28.344-15.385-39.592 5.285l-2.921 17.793 30.699 23.855 9.526-12.247c7.922-10.198 8.566-23.923 2.288-34.686z" fill="#ff8b8b"></path><path d="m446.769 195.002c-1.94-3.326-4.524-6.35-7.75-8.859-13.54-10.509-33.027-8.068-43.546 5.472l-9.516 12.247 18.298 14.219c2.737-3.521 5.845-7.521 9.529-12.263 7.997-10.294 21.176-14.165 32.985-10.816z" fill="#fd5e5e"></path><path d="m380.454 248.709-53.382 52.814-41.804 69.685 30.707 23.857c.509-.656-3.752 4.825 95.179-122.493z" fill="#fae27a"></path><path d="m362.157 234.487c-8.092 10.414-85.896 110.542-95.201 122.518l18.312 14.203c59.23-76.226 81.703-105.147 95.186-122.499z" fill="#ffd05c"></path><path d="m315.943 395.068-58.452 31.254c-2.777 1.485-6.014-.981-5.319-4.053l14.764-65.275c28.273-3.67 44.865 8.671 49.007 38.074z" fill="#565f85"></path></g></g></svg>