<svg xmlns="http://www.w3.org/2000/svg" id="Capa_1" height="512" viewBox="0 0 512 512" width="512"><g><path d="m376 482h-60c-8.291 0-15-6.709-15-15s6.709-15 15-15h60c24.814 0 45-20.186 45-45v-30c0-8.291 6.709-15 15-15s15 6.709 15 15v30c0 41.353-33.647 75-75 75z" fill="#b5dbff"></path><path d="m0 286c0 41.144 13.305 80.746 54.009 80.746 11.265 0 21.548-3.252 27.7-6.328v-147.836c-6.204-3.098-16.592-6.39-27.959-6.346-40.576.16-53.75 38.867-53.75 79.764z" fill="#6aa9ff"></path><path d="m256 0c-107.52 0-196 88.48-196 196 0 8.291 6.709 15 15 15s15-6.709 15-15c0-90.981 75.019-166 166-166s165 75.019 165 166c0 8.291 6.709 15 15 15s15-6.709 15-15c0-107.52-87.48-196-195-196z" fill="#d5e8fe"></path><path d="m421 196c0 8.291 6.709 15 15 15s15-6.709 15-15c0-107.52-87.48-196-195-196v30c90.981 0 165 75.019 165 166z" fill="#b5dbff"></path><path d="m286 422h-30c-24.814 0-45 20.186-45 45s20.186 45 45 45h30c24.814 0 45-20.186 45-45s-20.186-45-45-45z" fill="#6aa9ff"></path><path d="m331 467c0-24.814-20.186-45-45-45h-30v90h30c24.814 0 45-20.186 45-45z" fill="#4895ff"></path><path d="m75 392c-8.291 0-15-6.709-15-15v-181c0-8.291 6.709-15 15-15s15 6.709 15 15v181c0 8.291-6.709 15-15 15z"></path><path d="m436 392c-8.291 0-15-6.709-15-15v-181c0-8.291 6.709-15 15-15s15 6.709 15 15v181c0 8.291-6.709 15-15 15z"></path><path d="m457.248 206.253c-11.372-.047-21.76 3.238-27.957 6.329v147.836c6.152 3.076 16.436 6.328 27.7 6.328 40.769 0 55.009-39.715 55.009-80.746 0-40.869-14.139-79.58-54.752-79.747z" fill="#4895ff"></path><path d="m105 392h-30c-8.291 0-15-6.709-15-15v-181c0-8.291 6.709-15 15-15h30c8.291 0 15 6.709 15 15v181c0 8.291-6.709 15-15 15z" fill="#47568c"></path><path d="m436 392h-30c-8.291 0-15-6.709-15-15v-181c0-8.291 6.709-15 15-15h30c8.291 0 15 6.709 15 15v181c0 8.291-6.709 15-15 15z" fill="#29376d"></path></g></svg>