<svg xmlns="http://www.w3.org/2000/svg" xmlns:svg="http://www.w3.org/2000/svg" id="svg5" height="512" viewBox="0 0 64 64" width="512"><g id="g51399" transform="translate(-1044 -380)"><path id="path74038" d="m1076 384c-1.79 0-3.0759 1.13563-4.1719 2.09766-1.0959.96202-2.0558 1.77438-2.9785 1.91406-.9123.13811-2.695-.79215-4.4102-1.70117-.8575-.45452-1.7008-.88614-2.6269-1.02344-.9261-.13731-2.0711.239-2.6602 1.18359-.8529 1.36764-.4813 2.99135.2989 4.33399s1.9849 2.60197 3.2461 3.73437c2.5222 2.26482 5.3164 3.99805 5.3164 3.99805a1.0001 1.0001 0 0 0 .5293.15234h14.914a1.0001 1.0001 0 0 0 .5293-.15234s2.7942-1.73323 5.3164-3.99805c1.2612-1.1324 2.4659-2.39173 3.2461-3.73437s1.1518-2.96635.2989-4.33399c-.5891-.94459-1.7341-1.3209-2.6602-1.18359-.9261.1373-1.7694.56892-2.627 1.02344-1.7151.90902-3.4978 1.83928-4.4101 1.70117-.9227-.13968-1.8826-.95204-2.9785-1.91406-1.096-.96203-2.3819-2.09766-4.1719-2.09766zm-7.4473 16.68945a1.0001 1.0001 0 0 0 -.3652.0684c-4.3011 1.68288-7.7963 5.71014-10.2676 10.41797-2.4713 4.70775-3.9199 10.12788-3.9199 14.82418 0 6.0692 2.6458 9.82261 6.7227 11.75391 4.0768 1.9313 9.438 2.24609 15.2773 2.24609s11.2005-.31479 15.2773-2.24609c4.0769-1.9313 6.7227-5.68471 6.7227-11.75391 0-4.6963-1.4486-10.11639-3.9199-14.82422s-5.9665-8.73509-10.2676-10.41797a1.0001 1.0001 0 0 0 -.3652-.0684z" fill="#1163fc" stroke-linecap="round" stroke-linejoin="round"></path><path id="path74040" d="m1067 396.68945c-1.6447 0-3 1.35531-3 3 0 1.6447 1.3553 3 3 3h18c1.6447 0 3-1.35529 3-3 0-1.6447-1.3553-3-3-3z" fill="#85affd" stroke-linecap="round" stroke-linejoin="round"></path><path id="text33716-4-5-2" d="m1072.3107 413.34375c-.2934 0-.5403.0946-.7403.28125-.1866.18667-.2812.41922-.2812.69922 0 .29333.095.54023.2812.74023.2.18667.4469.2793.7403.2793h2.7792c.52 0 .9665.20776 1.3399.62109.1593.16482.2774.35498.3711.56055h-4.4902c-.2934 0-.5403.0926-.7403.2793-.1866.17333-.2812.40588-.2812.69922 0 .29333.095.54023.2812.74023.2.18667.4469.28125.7403.28125h4.5332c-.037.11396-.062.23475-.1133.33984-.1734.38667-.4079.69326-.7012.91993-.28.21333-.5722.32651-.8789.33984h-2.8008c-.28 0-.5187.0802-.7187.24023-.1867.14667-.2813.35868-.2813.63868 0 .29333.095.52783.2813.70117.2.16.4387.24023.7187.24023h2.2598c.2933 0 .567.0391.8203.11914.2533.0667.4735.17985.6601.33985.1867.14666.3328.34007.4395.58008.1067.23999.1601.52604.1601.85937 0 .66667.068 1.22831.2012 1.68164.1334.44.3.80008.5 1.08008.2134.26667.4397.46008.6797.58008.2533.10666.4859.1582.6992.1582.2934 0 .5279-.0783.7012-.23828.1867-.16.2793-.36776.2793-.62109 0-.16-.039-.30612-.1191-.43946-.08-.14666-.2014-.26604-.3614-.35937-.16-.0933-.2793-.22706-.3593-.40039-.067-.17334-.114-.39349-.1407-.66016-.027-.28-.06-.62768-.1-1.04102-.027-.42666-.1336-.81968-.3203-1.17968-.1866-.36-.4254-.67899-.7187-.95899-.1725-.17244-.3601-.31172-.5528-.43359.3525-.20114.6814-.4431.9727-.7461.3333-.34666.5988-.73348.7988-1.16015.093-.19159.1566-.38597.209-.58008h.6309c.28 0 .5207-.0946.7207-.28125.2-.2.2988-.43875.2988-.71875s-.099-.5145-.2988-.70117c-.2-.2-.4407-.29883-.7207-.29883h-.7793c-.063-.13773-.1353-.27217-.2207-.40039-.2034-.30508-.4546-.56235-.7442-.78125h1.7442c.28 0 .5207-.0926.7207-.2793.2-.18666.2988-.41922.2988-.69922 0-.29333-.099-.53403-.2988-.7207-.2-.2-.4407-.30078-.7207-.30078z" fill="#bfd5fe"></path></g></svg>