<svg xmlns="http://www.w3.org/2000/svg" xmlns:xlink="http://www.w3.org/1999/xlink" id="Layer_1" x="0px" y="0px" viewBox="0 0 500 500" xml:space="preserve"><g id="OBJECTS">	<g>		<ellipse fill="#D9E4F5" cx="246.46" cy="396.42" rx="223.07" ry="26.7"></ellipse>	</g>	<g>		<path fill="#D9E4F5" d="M133.79,84.35c0,1.05-0.43,2.02-1.13,2.71c-0.69,0.7-1.65,1.13-2.71,1.13H47.84   c-2.11,0-3.84-1.73-3.84-3.84c0-1.06,0.43-2.02,1.13-2.71c0.69-0.7,1.65-1.13,2.71-1.13h3.88c1.53-3.56,5.07-6.05,9.19-6.05   c2.77,0,5.28,1.13,7.1,2.95c2.42-4.1,6.88-6.86,11.99-6.86c1.4,0,2.76,0.21,4.03,0.6c2.67-5.02,7.95-8.44,14.04-8.44   c7.31,0,13.46,4.94,15.32,11.65c1.35-0.67,2.87-1.06,4.48-1.06c4.56,0,8.4,3.04,9.61,7.21h2.47   C132.06,80.51,133.79,82.24,133.79,84.35z"></path>		<path fill="#D9E4F5" d="M429.15,86.18c0,1.05-0.43,2.02-1.13,2.71c-0.69,0.7-1.65,1.13-2.71,1.13H343.2   c-2.11,0-3.84-1.73-3.84-3.84c0-1.06,0.43-2.02,1.13-2.71c0.69-0.7,1.65-1.13,2.71-1.13h3.88c1.53-3.56,5.07-6.05,9.19-6.05   c2.77,0,5.28,1.13,7.1,2.95c2.42-4.1,6.88-6.86,11.99-6.86c1.4,0,2.76,0.21,4.03,0.6c2.67-5.02,7.95-8.44,14.04-8.44   c7.31,0,13.46,4.94,15.32,11.65c1.35-0.67,2.87-1.06,4.48-1.06c4.56,0,8.4,3.04,9.61,7.21h2.47   C427.42,82.33,429.15,84.06,429.15,86.18z"></path>		<path fill="#D9E4F5" d="M295.45,111.89c0,1.06-0.43,2.02-1.13,2.71c-0.69,0.7-1.65,1.13-2.71,1.13H209.5   c-2.11,0-3.84-1.73-3.84-3.84c0-1.05,0.43-2.02,1.13-2.71c0.69-0.7,1.65-1.13,2.71-1.13h3.88c1.53-3.56,5.07-6.05,9.19-6.05   c2.77,0,5.28,1.13,7.1,2.95c2.42-4.1,6.88-6.86,11.99-6.86c1.4,0,2.76,0.21,4.03,0.6c2.67-5.02,7.95-8.44,14.04-8.44   c7.31,0,13.46,4.94,15.32,11.65c1.35-0.67,2.87-1.06,4.48-1.06c4.56,0,8.4,3.04,9.61,7.21h2.47   C293.73,108.05,295.45,109.77,295.45,111.89z"></path>	</g>	<g>		<g>			<path fill="#C7D9ED" d="M399.63,263.91c4.71-8.42,13.71-26.09,17.59-44.33c5.79-27.26,18.68-28.47,23.39-20.66    c12.94,21.44-22.09,58.18-33.23,69.03L399.63,263.91z"></path>			<g>				<path fill="#B4CAE3" d="M402.58,265.44c8.62-11.01,15.17-23.07,19.41-31.98c5.63-11.82,8.53-20.77,8.55-20.87     c0.1-0.32,0.45-0.5,0.77-0.39c0.32,0.1,0.5,0.45,0.39,0.77c-0.03,0.09-2.95,9.1-8.61,21c-4.24,8.92-10.79,21-19.42,32.05     L402.58,265.44z"></path>			</g>		</g>		<g>			<path fill="#C7D9ED" d="M90.69,344.27c-4.32-8.62-12.51-26.68-15.55-45.09c-4.54-27.5-17.36-29.29-22.42-21.71    c-13.9,20.82,19.42,59.13,30.04,70.47L90.69,344.27z"></path>			<g>				<path fill="#B4CAE3" d="M87.68,345.67c-8.11-11.39-14.1-23.74-17.93-32.83c-5.08-12.07-7.57-21.14-7.6-21.23     c-0.09-0.33-0.42-0.52-0.75-0.43c-0.33,0.09-0.52,0.42-0.43,0.75c0.02,0.09,2.53,9.23,7.64,21.37     c3.83,9.11,9.82,21.47,17.94,32.9L87.68,345.67z"></path>			</g>		</g>		<g>			<path fill="#D9E4F5" d="M101.25,369.33c-9.33-9.4-29.7-31.44-42.54-56.45c-18.42-35.9-36.89-32.69-40.51-20    c-9.37,32.82,45.84,68.5,68.73,81.67L101.25,369.33z"></path>			<g>				<path fill="#C7D9ED" d="M96.2,371.17c-16.07-12.05-29.66-26.32-38.9-37.08c-12.35-14.39-19.79-25.8-19.86-25.91     c-0.27-0.41-0.81-0.53-1.22-0.26c-0.41,0.27-0.53,0.81-0.26,1.22c0.07,0.11,7.56,11.6,19.98,26.08     c9.12,10.63,22.47,24.66,38.28,36.67L96.2,371.17z"></path>			</g>		</g>		<g>			<path fill="#D9E4F5" d="M393.01,281.01c9.75-8.97,31.1-30.05,45.07-54.46c20.04-35.03,38.34-30.98,41.39-18.13    c7.87,33.22-48.91,66.34-72.38,78.46L393.01,281.01z"></path>			<g>				<path fill="#C7D9ED" d="M397.96,283.08c16.61-11.31,30.83-24.93,40.55-35.26c12.99-13.81,20.94-24.87,21.02-24.98     c0.28-0.4,0.84-0.49,1.24-0.2c0.4,0.28,0.49,0.84,0.2,1.24c-0.08,0.11-8.08,11.24-21.15,25.14     c-9.6,10.21-23.57,23.61-39.91,34.88L397.96,283.08z"></path>			</g>		</g>		<g>			<path fill="#D9E4F5" d="M112.61,226.47c-9.65-5.75-31.06-19.55-46.9-37.39c-22.73-25.6-37.23-19.06-37.52-7.86    c-0.76,28.96,52.16,46.59,73.76,52.57L112.61,226.47z"></path>			<g>				<path fill="#C7D9ED" d="M108.85,229.05c-15.76-6.5-29.94-15.35-39.81-22.24c-13.19-9.21-21.72-17.01-21.8-17.09     c-0.31-0.28-0.78-0.26-1.06,0.05c-0.28,0.3-0.26,0.78,0.04,1.06c0.08,0.08,8.67,7.93,21.94,17.2     c9.75,6.81,23.68,15.51,39.21,22.03L108.85,229.05z"></path>			</g>		</g>		<path fill="#C7D9ED" d="M164.62,115.77c1.6-15.01,0.35-29.52-7.12-25.94c-7.48,3.58-4.86,28.51,5.31,44.95l2.12,6.42   c-7.2-12.11-21.57-22.37-27.46-18.54c-5.86,3.81,4.32,9.77,14.53,13.67c7.77,2.96,12.18,6.69,14.23,8.79l10.02,30.32   c-11.46-19.15-34.15-35.32-43.48-29.25c-9.3,6.05,6.86,15.51,23.06,21.69c12.24,4.67,19.23,10.53,22.51,13.88l2,6.05   c1.1-0.18,2.2-0.37,3.3-0.57l-11.92-36.07c0.8-3.1,2.39-7.34,5.54-12.27c5.88-9.21,10.51-20.06,3.53-19.64   c-6.05,0.37-10.92,12.92-11.23,25.35l-4.12-12.48C164.82,128.07,163.93,122.25,164.62,115.77z"></path>		<path fill="#D9E4F5" d="M454.97,281.54c4.05-14.54,10.57-27.57,16.19-21.48c5.63,6.09-6.01,28.29-21.53,39.81l-4.34,5.18   c11.16-8.6,28.3-12.83,32.37-7.09c4.04,5.7-7.63,7.49-18.55,7.33c-8.32-0.11-13.79,1.72-16.47,2.92l-20.51,24.48   c17.72-13.56,44.78-20.21,51.21-11.13c6.41,9.05-12.1,11.88-29.44,11.64c-13.1-0.18-21.76,2.68-26.04,4.59l-4.09,4.88   c-0.96-0.58-1.91-1.16-2.86-1.74l24.39-29.12c0.4-3.17,0.49-7.7-0.62-13.45c-2.06-10.73-2.36-22.53,3.97-19.55   c5.49,2.58,5.38,16.04,1.08,27.71l8.44-10.07C450.25,292.9,453.23,287.82,454.97,281.54z"></path>	</g>	<g>		<g>			<g>				<g>					<g>						<path fill="#007EFF" d="M433.54,169.65c-2.68,0-4.86-2.18-4.86-4.86c0-2.68,2.18-4.86,4.86-4.86s4.86,2.18,4.86,4.86       C438.4,167.47,436.22,169.65,433.54,169.65z M433.54,161.46c-1.84,0-3.33,1.5-3.33,3.34s1.5,3.34,3.33,3.34       s3.33-1.5,3.33-3.34C436.87,162.95,435.38,161.46,433.54,161.46z"></path>					</g>					<g>						<g>							<path fill="#0060E6" d="M458.24,174.6c-2.68,0-4.86-2.18-4.86-4.86c0-2.68,2.18-4.86,4.86-4.86s4.86,2.18,4.86,4.86        C463.1,172.42,460.92,174.6,458.24,174.6z M458.24,166.4c-1.84,0-3.33,1.5-3.33,3.34s1.5,3.34,3.33,3.34s3.33-1.5,3.33-3.34        C461.57,167.9,460.08,166.4,458.24,166.4z"></path>						</g>					</g>					<g>						<g>							<g>								<path fill="#007EFF" d="M469.94,184.52c-0.42,0-0.76-0.34-0.76-0.76v-3.36c0-0.42,0.34-0.76,0.76-0.76s0.76,0.34,0.76,0.76         v3.36C470.7,184.18,470.36,184.52,469.94,184.52z"></path>							</g>							<g>								<path fill="#007EFF" d="M469.94,190.4c-0.42,0-0.76-0.34-0.76-0.76v-3.36c0-0.42,0.34-0.76,0.76-0.76s0.76,0.34,0.76,0.76         v3.36C470.7,190.06,470.36,190.4,469.94,190.4z"></path>							</g>						</g>						<g>							<g>								<path fill="#007EFF" d="M474.66,185.78h-3.02c-0.42,0-0.76-0.34-0.76-0.76s0.34-0.76,0.76-0.76h3.02         c0.42,0,0.76,0.34,0.76,0.76C475.42,185.44,475.08,185.78,474.66,185.78z"></path>							</g>							<g>								<path fill="#007EFF" d="M468.24,185.78h-3.02c-0.42,0-0.76-0.34-0.76-0.76s0.34-0.76,0.76-0.76h3.02         c0.42,0,0.76,0.34,0.76,0.76C469.01,185.44,468.67,185.78,468.24,185.78z"></path>							</g>						</g>					</g>					<g>						<g>							<g>								<g>									<path fill="#0060E6" d="M443.98,179.04c-0.42,0-0.76-0.34-0.76-0.76v-3.36c0-0.42,0.34-0.76,0.76-0.76          c0.42,0,0.76,0.34,0.76,0.76v3.36C444.75,178.7,444.41,179.04,443.98,179.04z"></path>								</g>								<g>									<path fill="#0060E6" d="M443.98,184.92c-0.42,0-0.76-0.34-0.76-0.76v-3.36c0-0.42,0.34-0.76,0.76-0.76          c0.42,0,0.76,0.34,0.76,0.76v3.36C444.75,184.58,444.41,184.92,443.98,184.92z"></path>								</g>							</g>							<g>								<g>									<path fill="#0060E6" d="M448.7,180.3h-3.02c-0.42,0-0.76-0.34-0.76-0.76c0-0.42,0.34-0.76,0.76-0.76h3.02          c0.42,0,0.76,0.34,0.76,0.76S449.12,180.3,448.7,180.3z"></path>								</g>								<g>									<path fill="#0060E6" d="M442.29,180.3h-3.02c-0.42,0-0.76-0.34-0.76-0.76c0-0.42,0.34-0.76,0.76-0.76h3.02          c0.42,0,0.76,0.34,0.76,0.76S442.71,180.3,442.29,180.3z"></path>								</g>							</g>						</g>					</g>				</g>			</g>		</g>		<g>			<g>				<g>					<g>						<path fill="#007EFF" d="M37.71,261.52c0,2.68-2.18,4.86-4.86,4.86s-4.86-2.18-4.86-4.86s2.18-4.86,4.86-4.86       S37.71,258.84,37.71,261.52z M29.51,261.52c0,1.84,1.5,3.33,3.34,3.33s3.33-1.5,3.33-3.33s-1.5-3.33-3.33-3.33       C31,258.18,29.51,259.68,29.51,261.52z"></path>					</g>					<g>						<g>							<path fill="#0060E6" d="M42.65,236.82c0,2.68-2.18,4.86-4.86,4.86s-4.86-2.18-4.86-4.86c0-2.68,2.18-4.86,4.86-4.86        C40.47,231.96,42.65,234.14,42.65,236.82z M34.45,236.82c0,1.84,1.5,3.34,3.33,3.34s3.33-1.5,3.33-3.34s-1.5-3.34-3.33-3.34        C35.95,233.48,34.45,234.98,34.45,236.82z"></path>						</g>					</g>					<g>						<g>							<g>								<path fill="#007EFF" d="M52.57,225.12c0,0.42-0.34,0.76-0.76,0.76h-3.36c-0.42,0-0.76-0.34-0.76-0.76         c0-0.42,0.34-0.76,0.76-0.76h3.36C52.23,224.35,52.57,224.69,52.57,225.12z"></path>							</g>							<g>								<path fill="#007EFF" d="M58.46,225.12c0,0.42-0.34,0.76-0.76,0.76h-3.36c-0.42,0-0.76-0.34-0.76-0.76         c0-0.42,0.34-0.76,0.76-0.76h3.36C58.12,224.35,58.46,224.69,58.46,225.12z"></path>							</g>						</g>						<g>							<g>								<path fill="#007EFF" d="M53.83,220.4v3.02c0,0.42-0.34,0.76-0.76,0.76s-0.76-0.34-0.76-0.76v-3.02         c0-0.42,0.34-0.76,0.76-0.76C53.49,219.63,53.83,219.98,53.83,220.4z"></path>							</g>							<g>								<path fill="#007EFF" d="M53.83,226.81v3.02c0,0.42-0.34,0.76-0.76,0.76s-0.76-0.34-0.76-0.76v-3.02         c0-0.42,0.34-0.76,0.76-0.76C53.49,226.05,53.83,226.39,53.83,226.81z"></path>							</g>						</g>					</g>					<g>						<g>							<g>								<g>									<path fill="#0060E6" d="M47.09,251.07c0,0.42-0.34,0.76-0.76,0.76h-3.36c-0.42,0-0.76-0.34-0.76-0.76          c0-0.42,0.34-0.76,0.76-0.76h3.36C46.75,250.31,47.09,250.65,47.09,251.07z"></path>								</g>								<g>									<path fill="#0060E6" d="M52.97,251.07c0,0.42-0.34,0.76-0.76,0.76h-3.36c-0.42,0-0.76-0.34-0.76-0.76          c0-0.42,0.34-0.76,0.76-0.76h3.36C52.63,250.31,52.97,250.65,52.97,251.07z"></path>								</g>							</g>							<g>								<g>									<path fill="#0060E6" d="M48.35,246.35v3.02c0,0.42-0.34,0.76-0.76,0.76s-0.76-0.34-0.76-0.76v-3.02          c0-0.42,0.34-0.76,0.76-0.76C48.01,245.59,48.35,245.93,48.35,246.35z"></path>								</g>								<g>									<path fill="#0060E6" d="M48.35,252.77v3.02c0,0.42-0.34,0.76-0.76,0.76s-0.76-0.34-0.76-0.76v-3.02          c0-0.42,0.34-0.76,0.76-0.76C48.01,252.01,48.35,252.35,48.35,252.77z"></path>								</g>							</g>						</g>					</g>				</g>			</g>		</g>	</g>	<g>		<g>			<g>				<g>					<g>						<path fill="#00A0FF" d="M67.89,124.83c-0.2-1.03-0.61-2.03-1.22-2.92c-0.4-0.6-0.89-1.14-1.46-1.62       c-3.38-2.83-8.4-2.38-11.22,1c-2.17,2.61-2.4,6.19-0.83,8.99l-8.97,10.76c-0.76,0.91-0.64,2.27,0.28,3.03l1.03,0.86       c0.55,0.46,1.16,0.84,1.8,1.14c0.65,0.3,1.33,0.51,2.04,0.64c0.48,0.08,0.91-0.11,1.18-0.44c0.27-0.33,0.38-0.79,0.22-1.24       l-0.76-2.05l2.16,0.37c0.48,0.09,0.91-0.11,1.18-0.43c0.27-0.33,0.38-0.79,0.22-1.24l-0.76-2.05l2.16,0.37       c0.48,0.08,0.91-0.11,1.19-0.44c0.27-0.33,0.38-0.79,0.22-1.24l-0.76-2.05l1.94-2.33c1.27,0.44,2.62,0.54,3.92,0.31       c1.88-0.32,3.65-1.31,4.92-2.94c0.13-0.16,0.25-0.33,0.36-0.5c0.14-0.21,0.27-0.42,0.39-0.64       C68,128.49,68.24,126.6,67.89,124.83z M59.39,122.96c0.98-1.17,2.72-1.33,3.89-0.36c0.17,0.14,0.31,0.29,0.44,0.46       c0.76,1,0.76,2.43-0.08,3.44c-0.09,0.11-0.18,0.2-0.28,0.29c-0.25,0.22-0.53,0.39-0.83,0.51c-0.04,0.02-0.09,0.03-0.13,0.05       c-0.2,0.07-0.41,0.11-0.63,0.13c-0.06,0.01-0.13,0.01-0.19,0.01c-0.06,0-0.13,0-0.19,0c-0.06,0-0.11-0.01-0.17-0.01       c-0.06-0.01-0.12-0.01-0.18-0.03c0,0-0.01,0-0.02,0c-0.05-0.01-0.1-0.02-0.15-0.03c-0.04-0.01-0.08-0.02-0.12-0.03       c-0.04-0.01-0.08-0.02-0.11-0.04c-0.06-0.02-0.11-0.04-0.17-0.06c-0.08-0.03-0.15-0.06-0.22-0.1       c-0.17-0.09-0.34-0.2-0.49-0.33c-1.06-0.89-1.29-2.41-0.59-3.56C59.22,123.18,59.3,123.06,59.39,122.96z"></path>						<path fill="#007EFF" d="M54.65,134.48L54.65,134.48c0.15,0.13,0.17,0.36,0.05,0.51l-7.05,8.45c-0.13,0.15-0.36,0.17-0.51,0.05       l0,0c-0.15-0.13-0.17-0.36-0.05-0.51l7.05-8.45C54.27,134.37,54.5,134.35,54.65,134.48z"></path>						<path fill="#007EFF" d="M53.07,133.16L53.07,133.16c0.15,0.13,0.17,0.36,0.05,0.51l-7.05,8.45c-0.13,0.15-0.36,0.17-0.51,0.05       l0,0c-0.15-0.13-0.17-0.36-0.05-0.51l7.05-8.45C52.69,133.06,52.92,133.04,53.07,133.16z"></path>					</g>					<path fill="#007EFF" d="M63.35,126.79c-0.07,0.11-0.15,0.23-0.24,0.33c-0.72,0.86-1.85,1.17-2.86,0.89      c-0.37-0.1-0.72-0.28-1.03-0.54c-1.17-0.98-1.33-2.72-0.35-3.89c0.09-0.11,0.18-0.2,0.28-0.29c-0.7,1.15-0.47,2.67,0.59,3.56      c0.15,0.13,0.32,0.24,0.49,0.33c0.07,0.04,0.15,0.07,0.22,0.1c0.06,0.03,0.11,0.04,0.17,0.06c0.04,0.01,0.08,0.03,0.11,0.04      c0.04,0.01,0.08,0.02,0.12,0.03c0.05,0.01,0.1,0.03,0.15,0.03c0.01,0,0.01,0,0.02,0c0.06,0.01,0.12,0.02,0.18,0.03      c0.06,0.01,0.11,0.01,0.17,0.01c0.06,0,0.13,0,0.19,0c0.06,0,0.13,0,0.19-0.01c0.21-0.02,0.42-0.06,0.63-0.13      c0.05-0.01,0.09-0.03,0.13-0.05C62.82,127.18,63.1,127.01,63.35,126.79z"></path>					<path fill="#007EFF" d="M65.41,127.84c-0.01-0.13-0.02-0.27-0.01-0.41c0.07-1.39,1.15-2.48,2.49-2.61      c-0.2-1.03-0.61-2.03-1.22-2.92c-1.07,0.18-2.07,0.58-2.96,1.15c0.76,1,0.76,2.43-0.08,3.44c-0.09,0.11-0.18,0.2-0.28,0.29      c-0.25,0.22-0.53,0.39-0.83,0.51c-0.04,0.02-0.09,0.03-0.13,0.05c-0.2,0.07-0.41,0.11-0.63,0.13      c-0.06,0.01-0.13,0.01-0.19,0.01c-0.07,0-0.13,0-0.19,0c-0.06,0-0.11-0.01-0.17-0.01c-0.06-0.01-0.12-0.01-0.18-0.03      c0,0-0.01,0-0.02,0c-0.05-0.01-0.1-0.02-0.15-0.03c-0.04-0.01-0.08-0.02-0.12-0.03c-0.04-0.01-0.08-0.02-0.11-0.04      c-0.06-0.02-0.11-0.04-0.17-0.06c-0.08,0.24-0.15,0.49-0.2,0.74c-0.09,0.43-0.15,0.87-0.18,1.32      c-0.09,1.81,0.42,3.51,1.37,4.89c1.88-0.32,3.65-1.31,4.92-2.94c0.13-0.16,0.25-0.33,0.36-0.5c0.14-0.21,0.27-0.42,0.39-0.64      C66.18,129.76,65.5,128.88,65.41,127.84z"></path>				</g>				<g>					<g>						<path fill="#00A0FF" d="M77.68,130.35c0.09-4.26-3.27-7.88-7.52-8.11c-4.4-0.24-8.15,3.14-8.38,7.53       c-0.18,3.39,1.79,6.4,4.72,7.69l-0.73,13.99c-0.06,1.19,0.85,2.2,2.04,2.26l1.34,0.07c0.71,0.04,1.43-0.02,2.13-0.17       s1.37-0.39,2.01-0.71c0.43-0.22,0.67-0.63,0.69-1.06c0.02-0.42-0.16-0.86-0.57-1.13l-1.84-1.19l1.95-0.99       c0.43-0.22,0.67-0.63,0.69-1.06c0.02-0.42-0.16-0.86-0.57-1.13l-1.84-1.19l1.95-0.99c0.43-0.22,0.67-0.63,0.69-1.06       c0.02-0.42-0.16-0.86-0.57-1.13l-1.84-1.19l0.16-3.02C75.29,136.75,77.6,133.85,77.68,130.35z M72.56,128.56       c-0.26,1.32-1.47,2.28-2.85,2.21c-1.39-0.07-2.48-1.15-2.61-2.49c-0.01-0.13-0.02-0.27-0.01-0.41c0.08-1.53,1.38-2.7,2.9-2.62       c1.53,0.08,2.7,1.38,2.62,2.91C72.61,128.29,72.59,128.43,72.56,128.56z"></path>						<path fill="#007EFF" d="M70.21,139.93L70.21,139.93c0.2,0.01,0.35,0.18,0.34,0.38l-0.57,10.99c-0.01,0.2-0.18,0.35-0.38,0.34       l0,0c-0.2-0.01-0.35-0.18-0.34-0.38l0.57-10.99C69.84,140.07,70.01,139.92,70.21,139.93z"></path>						<path fill="#007EFF" d="M68.16,139.82L68.16,139.82c0.2,0.01,0.35,0.18,0.34,0.38l-0.57,10.99c-0.01,0.2-0.18,0.35-0.38,0.34       l0,0c-0.2-0.01-0.35-0.18-0.34-0.38l0.57-10.99C67.79,139.97,67.96,139.81,68.16,139.82z"></path>					</g>					<path fill="#007EFF" d="M72.57,128.97c-0.08,1.52-1.38,2.7-2.9,2.62c-1.53-0.08-2.7-1.38-2.62-2.9      c0.01-0.14,0.03-0.27,0.05-0.4c0.13,1.34,1.22,2.42,2.61,2.49c1.39,0.07,2.59-0.89,2.85-2.21      C72.58,128.7,72.58,128.83,72.57,128.97z"></path>				</g>				<g>					<g>						<path fill="#3B3E7D" d="M71.8,111.82c-4.63-1.97-10.01,0.19-11.98,4.82c-0.26,0.6-0.44,1.21-0.56,1.83       c1.15-0.12,2.33,0,3.44,0.39c0.07-0.29,0.17-0.58,0.29-0.87c1.23-2.89,4.58-4.24,7.47-3.01c2.89,1.23,4.24,4.58,3.01,7.47       c-0.08,0.2-0.18,0.39-0.28,0.57c1.06,0.51,1.98,1.26,2.71,2.16c0.28-0.43,0.53-0.9,0.74-1.39       C78.6,119.17,76.44,113.79,71.8,111.82z M70.65,125.37c-0.8,0.38-1.69,0.57-2.59,0.55c-0.01,0-0.02,0-0.03,0       c-0.68-0.02-1.37-0.17-2.03-0.45c-0.64-0.27-1.21-0.65-1.69-1.11c-0.03-0.02-0.05-0.05-0.07-0.07       c-0.56-0.55-0.99-1.2-1.28-1.91c-1.11-0.68-2.57-0.5-3.48,0.48c0.51,1.68,1.49,3.2,2.86,4.36c0.04,0.04,0.09,0.07,0.13,0.11       c0.08,0.07,0.16,0.13,0.24,0.19c0.58,0.44,1.23,0.82,1.93,1.12c0.8,0.34,1.62,0.56,2.44,0.66c0.11,0.01,0.22,0.02,0.33,0.04       c0.02,0,0.05,0.01,0.07,0.01c1.79,0.15,3.57-0.25,5.12-1.1c0-0.02,0-0.05,0.01-0.07C72.68,126.86,71.84,125.72,70.65,125.37z"></path>					</g>				</g>			</g>			<g>				<g>					<path fill="#B4CAE3" d="M33.95,159.68h-2.1c-0.55,0-0.99-0.44-0.99-0.99v-2.1c0-0.54,0.44-0.99,0.99-0.99      c0.55,0,0.99,0.44,0.99,0.99v1.11h1.11c0.54,0,0.99,0.44,0.99,0.99S34.49,159.68,33.95,159.68z"></path>				</g>				<g>					<path fill="#B4CAE3" d="M90.67,159.68h-4.17c-0.54,0-0.99-0.44-0.99-0.99s0.44-0.99,0.99-0.99h4.17c0.54,0,0.99,0.44,0.99,0.99      S91.21,159.68,90.67,159.68z M82.57,159.68h-4.17c-0.54,0-0.99-0.44-0.99-0.99s0.44-0.99,0.99-0.99h4.17      c0.54,0,0.99,0.44,0.99,0.99S83.11,159.68,82.57,159.68z M74.46,159.68h-4.17c-0.54,0-0.99-0.44-0.99-0.99s0.44-0.99,0.99-0.99      h4.17c0.54,0,0.99,0.44,0.99,0.99C75.45,159.24,75.01,159.68,74.46,159.68z M66.36,159.68h-4.17c-0.54,0-0.99-0.44-0.99-0.99      s0.44-0.99,0.99-0.99h4.17c0.54,0,0.99,0.44,0.99,0.99S66.9,159.68,66.36,159.68z M58.26,159.68h-4.17      c-0.54,0-0.99-0.44-0.99-0.99s0.44-0.99,0.99-0.99h4.17c0.54,0,0.99,0.44,0.99,0.99S58.8,159.68,58.26,159.68z M50.15,159.68      h-4.17c-0.54,0-0.99-0.44-0.99-0.99s0.44-0.99,0.99-0.99h4.17c0.54,0,0.99,0.44,0.99,0.99      C51.14,159.24,50.7,159.68,50.15,159.68z M42.05,159.68h-4.17c-0.54,0-0.99-0.44-0.99-0.99s0.44-0.99,0.99-0.99h4.17      c0.54,0,0.99,0.44,0.99,0.99C43.04,159.24,42.6,159.68,42.05,159.68z"></path>				</g>				<g>					<path fill="#B4CAE3" d="M96.69,159.68h-2.1c-0.54,0-0.99-0.44-0.99-0.99s0.44-0.99,0.99-0.99h1.11v-1.11      c0-0.54,0.44-0.99,0.99-0.99s0.99,0.44,0.99,0.99v2.1C97.68,159.24,97.24,159.68,96.69,159.68z"></path>				</g>				<g>					<path fill="#B4CAE3" d="M96.69,153.8c-0.54,0-0.99-0.44-0.99-0.99v-4.01c0-0.54,0.44-0.99,0.99-0.99s0.99,0.44,0.99,0.99v4.01      C97.68,153.36,97.24,153.8,96.69,153.8z M96.69,146.01c-0.54,0-0.99-0.44-0.99-0.99v-4.01c0-0.54,0.44-0.99,0.99-0.99      s0.99,0.44,0.99,0.99v4.01C97.68,145.57,97.24,146.01,96.69,146.01z M96.69,138.22c-0.54,0-0.99-0.44-0.99-0.99v-4.01      c0-0.54,0.44-0.99,0.99-0.99s0.99,0.44,0.99,0.99v4.01C97.68,137.78,97.24,138.22,96.69,138.22z M96.69,130.43      c-0.54,0-0.99-0.44-0.99-0.99v-4.01c0-0.54,0.44-0.99,0.99-0.99s0.99,0.44,0.99,0.99v4.01      C97.68,129.99,97.24,130.43,96.69,130.43z M96.69,122.64c-0.54,0-0.99-0.44-0.99-0.99v-4.01c0-0.54,0.44-0.99,0.99-0.99      s0.99,0.44,0.99,0.99v4.01C97.68,122.19,97.24,122.64,96.69,122.64z M96.69,114.85c-0.54,0-0.99-0.44-0.99-0.99v-4.01      c0-0.54,0.44-0.99,0.99-0.99s0.99,0.44,0.99,0.99v4.01C97.68,114.4,97.24,114.85,96.69,114.85z"></path>				</g>				<g>					<path fill="#B4CAE3" d="M96.69,107.05c-0.54,0-0.99-0.44-0.99-0.99v-1.11H94.6c-0.54,0-0.99-0.44-0.99-0.99      s0.44-0.99,0.99-0.99h2.1c0.54,0,0.99,0.44,0.99,0.99v2.1C97.68,106.61,97.24,107.05,96.69,107.05z"></path>				</g>				<g>					<path fill="#B4CAE3" d="M90.67,104.96h-4.17c-0.54,0-0.99-0.44-0.99-0.99s0.44-0.99,0.99-0.99h4.17c0.54,0,0.99,0.44,0.99,0.99      C91.65,104.52,91.21,104.96,90.67,104.96z M82.57,104.96h-4.17c-0.54,0-0.99-0.44-0.99-0.99s0.44-0.99,0.99-0.99h4.17      c0.54,0,0.99,0.44,0.99,0.99C83.55,104.52,83.11,104.96,82.57,104.96z M74.46,104.96h-4.17c-0.54,0-0.99-0.44-0.99-0.99      s0.44-0.99,0.99-0.99h4.17c0.54,0,0.99,0.44,0.99,0.99C75.45,104.52,75.01,104.96,74.46,104.96z M66.36,104.96h-4.17      c-0.54,0-0.99-0.44-0.99-0.99s0.44-0.99,0.99-0.99h4.17c0.54,0,0.99,0.44,0.99,0.99C67.35,104.52,66.9,104.96,66.36,104.96z       M58.26,104.96h-4.17c-0.54,0-0.99-0.44-0.99-0.99s0.44-0.99,0.99-0.99h4.17c0.54,0,0.99,0.44,0.99,0.99      C59.24,104.52,58.8,104.96,58.26,104.96z M50.15,104.96h-4.17c-0.54,0-0.99-0.44-0.99-0.99s0.44-0.99,0.99-0.99h4.17      c0.54,0,0.99,0.44,0.99,0.99C51.14,104.52,50.7,104.96,50.15,104.96z M42.05,104.96h-4.17c-0.54,0-0.99-0.44-0.99-0.99      s0.44-0.99,0.99-0.99h4.17c0.54,0,0.99,0.44,0.99,0.99C43.04,104.52,42.6,104.96,42.05,104.96z"></path>				</g>				<g>					<path fill="#B4CAE3" d="M31.85,107.05c-0.55,0-0.99-0.44-0.99-0.99v-2.1c0-0.54,0.44-0.99,0.99-0.99h2.1      c0.54,0,0.99,0.44,0.99,0.99s-0.44,0.99-0.99,0.99h-1.11v1.11C32.84,106.61,32.4,107.05,31.85,107.05z"></path>				</g>				<g>					<path fill="#B4CAE3" d="M31.85,153.8c-0.55,0-0.99-0.44-0.99-0.99v-4.01c0-0.54,0.44-0.99,0.99-0.99s0.99,0.44,0.99,0.99v4.01      C32.84,153.36,32.4,153.8,31.85,153.8z M31.85,146.01c-0.55,0-0.99-0.44-0.99-0.99v-4.01c0-0.54,0.44-0.99,0.99-0.99      s0.99,0.44,0.99,0.99v4.01C32.84,145.57,32.4,146.01,31.85,146.01z M31.85,138.22c-0.55,0-0.99-0.44-0.99-0.99v-4.01      c0-0.54,0.44-0.99,0.99-0.99s0.99,0.44,0.99,0.99v4.01C32.84,137.78,32.4,138.22,31.85,138.22z M31.85,130.43      c-0.55,0-0.99-0.44-0.99-0.99v-4.01c0-0.54,0.44-0.99,0.99-0.99s0.99,0.44,0.99,0.99v4.01      C32.84,129.99,32.4,130.43,31.85,130.43z M31.85,122.64c-0.55,0-0.99-0.44-0.99-0.99v-4.01c0-0.54,0.44-0.99,0.99-0.99      s0.99,0.44,0.99,0.99v4.01C32.84,122.19,32.4,122.64,31.85,122.64z M31.85,114.85c-0.55,0-0.99-0.44-0.99-0.99v-4.01      c0-0.54,0.44-0.99,0.99-0.99s0.99,0.44,0.99,0.99v4.01C32.84,114.4,32.4,114.85,31.85,114.85z"></path>				</g>			</g>			<g>				<path fill="#B4CAE3" d="M124.65,173.2c-0.54,0-0.99-0.44-0.99-0.99v-4.19c0-0.54,0.44-0.99,0.99-0.99s0.99,0.44,0.99,0.99v4.19     C125.64,172.76,125.2,173.2,124.65,173.2z M124.65,165.06c-0.54,0-0.99-0.44-0.99-0.99v-4.19c0-0.54,0.44-0.99,0.99-0.99     s0.99,0.44,0.99,0.99v4.19C125.64,164.62,125.2,165.06,124.65,165.06z M124.65,156.92c-0.54,0-0.99-0.44-0.99-0.99v-4.19     c0-0.54,0.44-0.99,0.99-0.99s0.99,0.44,0.99,0.99v4.19C125.64,156.48,125.2,156.92,124.65,156.92z M124.65,148.78     c-0.54,0-0.99-0.44-0.99-0.99v-4.19c0-0.54,0.44-0.99,0.99-0.99s0.99,0.44,0.99,0.99v4.19     C125.64,148.34,125.2,148.78,124.65,148.78z M124.65,140.64c-0.54,0-0.99-0.44-0.99-0.99v-4.19c0-0.54,0.44-0.99,0.99-0.99     s0.99,0.44,0.99,0.99v4.19C125.64,140.2,125.2,140.64,124.65,140.64z M121.27,135.88h-4.19c-0.54,0-0.99-0.44-0.99-0.99     s0.44-0.99,0.99-0.99h4.19c0.54,0,0.99,0.44,0.99,0.99S121.81,135.88,121.27,135.88z M113.13,135.88h-4.19     c-0.54,0-0.99-0.44-0.99-0.99s0.44-0.99,0.99-0.99h4.19c0.54,0,0.99,0.44,0.99,0.99S113.67,135.88,113.13,135.88z      M104.99,135.88h-4.19c-0.54,0-0.99-0.44-0.99-0.99s0.44-0.99,0.99-0.99h4.19c0.54,0,0.99,0.44,0.99,0.99     S105.53,135.88,104.99,135.88z M96.85,135.88h-0.09c-0.54,0-0.99-0.44-0.99-0.99s0.44-0.99,0.99-0.99h0.09     c0.54,0,0.99,0.44,0.99,0.99C97.83,135.44,97.39,135.88,96.85,135.88z"></path>			</g>		</g>		<g>			<g>				<g>					<g>						<g>							<path fill="#007EFF" d="M342.28,130.18l-0.17,5.85l5.48,0.16c0.24,1.4,0.71,2.75,1.39,4.03l-3.89,3.67l4.02,4.26l3.72-3.51        c1.46,1.06,3.08,1.79,4.78,2.18l-0.16,5.48l5.85,0.17l0.16-5.65c1.15-0.26,2.27-0.67,3.34-1.25l3.67,3.89l4.26-4.02        l-3.51-3.72c1.06-1.46,1.79-3.09,2.18-4.78l4.79,0.14l0.17-5.85l-4.96-0.14c-0.33-1.47-0.91-2.89-1.75-4.2l3.72-3.51        l-4.02-4.26l-3.89,3.67c-1.44-0.89-3.01-1.47-4.63-1.75l0.16-5.52l-5.85-0.17l-0.17,5.98c-1.22,0.35-2.4,0.87-3.51,1.58        l-3.51-3.72l-4.26,4.02l3.67,3.89c-0.63,1.03-1.11,2.12-1.44,3.26L342.28,130.18z M356.89,130.08        c2.15-2.03,5.55-1.93,7.59,0.22c2.03,2.15,1.93,5.55-0.22,7.59c-2.15,2.03-5.55,1.93-7.59-0.22        C354.64,135.52,354.74,132.11,356.89,130.08z"></path>						</g>						<g>							<path fill="#0060E6" d="M361.48,142.44c4.73-0.51,8.16-4.76,7.65-9.49s-4.76-8.16-9.49-7.65c-4.73,0.51-8.16,4.76-7.65,9.49        C352.5,139.52,356.75,142.95,361.48,142.44z M356.89,130.08c2.15-2.03,5.55-1.93,7.59,0.22c2.03,2.15,1.93,5.55-0.22,7.59        c-2.15,2.03-5.55,1.93-7.59-0.22C354.64,135.52,354.74,132.11,356.89,130.08z"></path>						</g>					</g>					<g>						<g>							<path fill="#007EFF" d="M380.79,132.68l-0.1,3.4l3.18,0.09c0.14,0.81,0.41,1.6,0.81,2.34l-2.26,2.13l2.33,2.47l2.16-2.04        c0.85,0.61,1.79,1.04,2.78,1.26l-0.09,3.18l3.4,0.1l0.09-3.28c0.67-0.15,1.32-0.39,1.94-0.72l2.13,2.26l2.47-2.33l-2.04-2.16        c0.61-0.85,1.04-1.79,1.26-2.78l2.78,0.08l0.1-3.4l-2.88-0.08c-0.19-0.85-0.53-1.68-1.02-2.44l2.16-2.04l-2.33-2.47        l-2.26,2.13c-0.83-0.51-1.75-0.85-2.69-1.02l0.09-3.2l-3.4-0.1l-0.1,3.47c-0.71,0.2-1.4,0.5-2.04,0.92l-2.04-2.16l-2.47,2.33        l2.13,2.26c-0.37,0.6-0.64,1.23-0.83,1.89L380.79,132.68z M389.27,132.62c1.25-1.18,3.23-1.12,4.4,0.13s1.12,3.23-0.13,4.4        s-3.23,1.12-4.4-0.13C387.96,135.78,388.02,133.8,389.27,132.62z"></path>						</g>						<g>							<path fill="#0060E6" d="M391.94,139.8c2.75-0.3,4.74-2.76,4.44-5.51s-2.76-4.74-5.51-4.44c-2.75,0.3-4.74,2.76-4.44,5.51        C386.72,138.1,389.19,140.09,391.94,139.8z M389.27,132.62c1.25-1.18,3.23-1.12,4.4,0.13s1.12,3.23-0.13,4.4        s-3.23,1.12-4.4-0.13C387.96,135.78,388.02,133.8,389.27,132.62z"></path>						</g>					</g>				</g>			</g>			<g>				<g>					<path fill="#B4CAE3" d="M417.11,159.68h-2.1c-0.55,0-0.99-0.44-0.99-0.99s0.44-0.99,0.99-0.99h1.11v-1.11      c0-0.54,0.44-0.99,0.99-0.99s0.99,0.44,0.99,0.99v2.1C418.1,159.24,417.66,159.68,417.11,159.68z"></path>				</g>				<g>					<path fill="#B4CAE3" d="M411.03,159.68h-4.23c-0.55,0-0.99-0.44-0.99-0.99s0.44-0.99,0.99-0.99h4.23      c0.55,0,0.99,0.44,0.99,0.99S411.58,159.68,411.03,159.68z M402.81,159.68h-4.23c-0.55,0-0.99-0.44-0.99-0.99      s0.44-0.99,0.99-0.99h4.23c0.55,0,0.99,0.44,0.99,0.99S403.36,159.68,402.81,159.68z M394.59,159.68h-4.23      c-0.55,0-0.99-0.44-0.99-0.99s0.44-0.99,0.99-0.99h4.23c0.55,0,0.99,0.44,0.99,0.99S395.14,159.68,394.59,159.68z       M386.37,159.68h-4.23c-0.55,0-0.99-0.44-0.99-0.99s0.44-0.99,0.99-0.99h4.23c0.55,0,0.99,0.44,0.99,0.99      C387.36,159.24,386.92,159.68,386.37,159.68z M378.15,159.68h-4.23c-0.55,0-0.99-0.44-0.99-0.99s0.44-0.99,0.99-0.99h4.23      c0.55,0,0.99,0.44,0.99,0.99C379.14,159.24,378.7,159.68,378.15,159.68z M369.93,159.68h-4.23c-0.55,0-0.99-0.44-0.99-0.99      s0.44-0.99,0.99-0.99h4.23c0.55,0,0.99,0.44,0.99,0.99S370.48,159.68,369.93,159.68z M361.71,159.68h-4.23      c-0.55,0-0.99-0.44-0.99-0.99s0.44-0.99,0.99-0.99h4.23c0.55,0,0.99,0.44,0.99,0.99S362.26,159.68,361.71,159.68z       M353.49,159.68h-4.23c-0.55,0-0.99-0.44-0.99-0.99s0.44-0.99,0.99-0.99h4.23c0.55,0,0.99,0.44,0.99,0.99      S354.04,159.68,353.49,159.68z M345.27,159.68h-4.23c-0.55,0-0.99-0.44-0.99-0.99s0.44-0.99,0.99-0.99h4.23      c0.55,0,0.99,0.44,0.99,0.99C346.26,159.24,345.82,159.68,345.27,159.68z M337.05,159.68h-4.23c-0.55,0-0.99-0.44-0.99-0.99      s0.44-0.99,0.99-0.99h4.23c0.55,0,0.99,0.44,0.99,0.99C338.04,159.24,337.6,159.68,337.05,159.68z"></path>				</g>				<g>					<path fill="#B4CAE3" d="M328.83,159.68h-2.1c-0.55,0-0.99-0.44-0.99-0.99v-2.1c0-0.54,0.44-0.99,0.99-0.99s0.99,0.44,0.99,0.99      v1.11h1.11c0.55,0,0.99,0.44,0.99,0.99S329.38,159.68,328.83,159.68z"></path>				</g>				<g>					<path fill="#B4CAE3" d="M326.73,153.54c-0.55,0-0.99-0.44-0.99-0.99v-4.29c0-0.54,0.44-0.99,0.99-0.99s0.99,0.44,0.99,0.99      v4.29C327.72,153.1,327.28,153.54,326.73,153.54z M326.73,145.21c-0.55,0-0.99-0.44-0.99-0.99v-4.29      c0-0.54,0.44-0.99,0.99-0.99s0.99,0.44,0.99,0.99v4.29C327.72,144.76,327.28,145.21,326.73,145.21z M326.73,136.87      c-0.55,0-0.99-0.44-0.99-0.99v-4.29c0-0.54,0.44-0.99,0.99-0.99s0.99,0.44,0.99,0.99v4.29      C327.72,136.43,327.28,136.87,326.73,136.87z M326.73,128.54c-0.55,0-0.99-0.44-0.99-0.99v-4.29c0-0.54,0.44-0.99,0.99-0.99      s0.99,0.44,0.99,0.99v4.29C327.72,128.1,327.28,128.54,326.73,128.54z M326.73,120.2c-0.55,0-0.99-0.44-0.99-0.99v-4.29      c0-0.54,0.44-0.99,0.99-0.99s0.99,0.44,0.99,0.99v4.29C327.72,119.76,327.28,120.2,326.73,120.2z"></path>				</g>				<g>					<path fill="#B4CAE3" d="M326.73,111.87c-0.55,0-0.99-0.44-0.99-0.99v-2.1c0-0.54,0.44-0.99,0.99-0.99h2.1      c0.55,0,0.99,0.44,0.99,0.99s-0.44,0.99-0.99,0.99h-1.11v1.11C327.72,111.43,327.28,111.87,326.73,111.87z"></path>				</g>				<g>					<path fill="#B4CAE3" d="M411.03,109.77h-4.23c-0.55,0-0.99-0.44-0.99-0.99s0.44-0.99,0.99-0.99h4.23      c0.55,0,0.99,0.44,0.99,0.99S411.58,109.77,411.03,109.77z M402.81,109.77h-4.23c-0.55,0-0.99-0.44-0.99-0.99      s0.44-0.99,0.99-0.99h4.23c0.55,0,0.99,0.44,0.99,0.99S403.36,109.77,402.81,109.77z M394.59,109.77h-4.23      c-0.55,0-0.99-0.44-0.99-0.99s0.44-0.99,0.99-0.99h4.23c0.55,0,0.99,0.44,0.99,0.99S395.14,109.77,394.59,109.77z       M386.37,109.77h-4.23c-0.55,0-0.99-0.44-0.99-0.99s0.44-0.99,0.99-0.99h4.23c0.55,0,0.99,0.44,0.99,0.99      S386.92,109.77,386.37,109.77z M378.15,109.77h-4.23c-0.55,0-0.99-0.44-0.99-0.99s0.44-0.99,0.99-0.99h4.23      c0.55,0,0.99,0.44,0.99,0.99S378.7,109.77,378.15,109.77z M369.93,109.77h-4.23c-0.55,0-0.99-0.44-0.99-0.99      s0.44-0.99,0.99-0.99h4.23c0.55,0,0.99,0.44,0.99,0.99S370.48,109.77,369.93,109.77z M361.71,109.77h-4.23      c-0.55,0-0.99-0.44-0.99-0.99s0.44-0.99,0.99-0.99h4.23c0.55,0,0.99,0.44,0.99,0.99S362.26,109.77,361.71,109.77z       M353.49,109.77h-4.23c-0.55,0-0.99-0.44-0.99-0.99s0.44-0.99,0.99-0.99h4.23c0.55,0,0.99,0.44,0.99,0.99      S354.04,109.77,353.49,109.77z M345.27,109.77h-4.23c-0.55,0-0.99-0.44-0.99-0.99s0.44-0.99,0.99-0.99h4.23      c0.55,0,0.99,0.44,0.99,0.99S345.82,109.77,345.27,109.77z M337.05,109.77h-4.23c-0.55,0-0.99-0.44-0.99-0.99      s0.44-0.99,0.99-0.99h4.23c0.55,0,0.99,0.44,0.99,0.99S337.6,109.77,337.05,109.77z"></path>				</g>				<g>					<path fill="#B4CAE3" d="M417.11,111.87c-0.55,0-0.99-0.44-0.99-0.99v-1.11h-1.11c-0.55,0-0.99-0.44-0.99-0.99      s0.44-0.99,0.99-0.99h2.1c0.55,0,0.99,0.44,0.99,0.99v2.1C418.1,111.43,417.66,111.87,417.11,111.87z"></path>				</g>				<g>					<path fill="#B4CAE3" d="M417.11,153.54c-0.55,0-0.99-0.44-0.99-0.99v-4.29c0-0.54,0.44-0.99,0.99-0.99s0.99,0.44,0.99,0.99      v4.29C418.1,153.1,417.66,153.54,417.11,153.54z M417.11,145.21c-0.55,0-0.99-0.44-0.99-0.99v-4.29c0-0.54,0.44-0.99,0.99-0.99      s0.99,0.44,0.99,0.99v4.29C418.1,144.76,417.66,145.21,417.11,145.21z M417.11,136.87c-0.55,0-0.99-0.44-0.99-0.99v-4.29      c0-0.54,0.44-0.99,0.99-0.99s0.99,0.44,0.99,0.99v4.29C418.1,136.43,417.66,136.87,417.11,136.87z M417.11,128.54      c-0.55,0-0.99-0.44-0.99-0.99v-4.29c0-0.54,0.44-0.99,0.99-0.99s0.99,0.44,0.99,0.99v4.29      C418.1,128.1,417.66,128.54,417.11,128.54z M417.11,120.2c-0.55,0-0.99-0.44-0.99-0.99v-4.29c0-0.54,0.44-0.99,0.99-0.99      s0.99,0.44,0.99,0.99v4.29C418.1,119.76,417.66,120.2,417.11,120.2z"></path>				</g>			</g>			<g>				<path fill="#B4CAE3" d="M298.84,173.2c-0.55,0-0.99-0.44-0.99-0.99v-4.19c0-0.54,0.44-0.99,0.99-0.99s0.99,0.44,0.99,0.99v4.19     C299.83,172.76,299.39,173.2,298.84,173.2z M298.84,165.06c-0.55,0-0.99-0.44-0.99-0.99v-4.19c0-0.54,0.44-0.99,0.99-0.99     s0.99,0.44,0.99,0.99v4.19C299.83,164.62,299.39,165.06,298.84,165.06z M298.84,156.92c-0.55,0-0.99-0.44-0.99-0.99v-4.19     c0-0.54,0.44-0.99,0.99-0.99s0.99,0.44,0.99,0.99v4.19C299.83,156.48,299.39,156.92,298.84,156.92z M298.84,148.78     c-0.55,0-0.99-0.44-0.99-0.99v-4.19c0-0.54,0.44-0.99,0.99-0.99s0.99,0.44,0.99,0.99v4.19     C299.83,148.34,299.39,148.78,298.84,148.78z M298.84,140.64c-0.55,0-0.99-0.44-0.99-0.99v-4.19c0-0.54,0.44-0.99,0.99-0.99     s0.99,0.44,0.99,0.99v4.19C299.83,140.2,299.39,140.64,298.84,140.64z M326.73,135.23h-0.74c-0.55,0-0.99-0.44-0.99-0.99     s0.44-0.99,0.99-0.99h0.74c0.55,0,0.99,0.44,0.99,0.99C327.72,134.79,327.28,135.23,326.73,135.23z M322.04,135.23h-4.19     c-0.55,0-0.99-0.44-0.99-0.99s0.44-0.99,0.99-0.99h4.19c0.55,0,0.99,0.44,0.99,0.99S322.59,135.23,322.04,135.23z M313.9,135.23     h-4.19c-0.55,0-0.99-0.44-0.99-0.99s0.44-0.99,0.99-0.99h4.19c0.55,0,0.99,0.44,0.99,0.99     C314.89,134.79,314.45,135.23,313.9,135.23z M305.76,135.23h-4.19c-0.55,0-0.99-0.44-0.99-0.99s0.44-0.99,0.99-0.99h4.19     c0.55,0,0.99,0.44,0.99,0.99C306.75,134.79,306.31,135.23,305.76,135.23z"></path>			</g>		</g>	</g>	<path fill="#0060E6" d="M50.55,249.29l-0.01,0.01h0.02L50.55,249.29z"></path>	<polygon fill="#0060E6" points="50.54,249.3 50.48,249.39 50.5,249.3  "></polygon>	<g>		<g>			<g>				<g>					<g>						<g>							<path fill="#3B3E7D" d="M418.59,178.21v188.05c0,7.75-6.28,14.04-14.04,14.04H84.07c-7.75,0-14.04-6.28-14.04-14.04V178.21        c0-7.75,6.28-14.04,14.04-14.04h320.48C412.31,164.17,418.59,170.46,418.59,178.21z"></path>						</g>						<path fill="#18285D" d="M418.59,276.04v90.22c0,7.75-6.28,14.04-14.04,14.04H84.07c-7.75,0-14.04-6.28-14.04-14.04v-90.22       H418.59z"></path>					</g>					<path fill="#FFFFFF" d="M403.11,187.77V356.7c0,4.97-4.03,9-9,9H94.52c-2.1,0-4.03-0.72-5.56-1.93      c-0.4-0.32-0.79-0.68-1.13-1.06c-1.44-1.59-2.31-3.7-2.31-6.02V187.77c0-4.97,4.03-9,9-9h299.59c1.66,0,3.22,0.45,4.55,1.24      c1.26,0.74,2.32,1.77,3.09,3.01C402.61,184.39,403.11,186.02,403.11,187.77z"></path>				</g>				<g>					<path fill="#021147" d="M451.15,372.79v1.2c0,5.98-1.92,11.51-5.18,16.01c-4.97,6.87-13.05,11.34-22.18,11.34H64.83      c-9.13,0-17.21-4.47-22.18-11.34c-3.26-4.5-5.18-10.03-5.18-16.01v-1.2H451.15z"></path>				</g>				<path fill="#FFFFFF" d="M197.95,372.79v0.27c0,2.17,1.45,3.92,3.24,3.92h84.45c1.79,0,3.24-1.76,3.24-3.92v-0.27H197.95z"></path>				<g>					<path fill="#D9E4F5" d="M403.11,187.77v9.97H85.52v-9.97c0-1.92,0.6-3.69,1.62-5.15c1.62-2.33,4.32-3.85,7.38-3.85h299.59      c3.06,0,5.76,1.52,7.38,3.85C402.51,184.08,403.11,185.85,403.11,187.77z"></path>					<path fill="#FFFFFF" d="M326.42,191.26h-168.5c-0.41,0-0.76-0.34-0.76-0.76v-3.53c0-0.41,0.34-0.75,0.75-0.75h168.5      c0.42,0,0.75,0.34,0.75,0.76v3.53C327.17,190.92,326.83,191.26,326.42,191.26z"></path>					<g>						<path fill="#3B3E7D" d="M116.57,188.74v1.87c0,0.54-0.58,0.87-1.04,0.6l-1.62-0.93l-1.62-0.93c-0.46-0.27-0.46-0.94,0-1.21       l1.62-0.93l1.62-0.93c0.46-0.27,1.04,0.07,1.04,0.6V188.74z"></path>					</g>					<g>						<path fill="#3B3E7D" d="M124.99,188.74v1.87c0,0.54,0.58,0.87,1.04,0.6l1.62-0.93l1.62-0.93c0.46-0.27,0.46-0.94,0-1.21       l-1.62-0.93l-1.62-0.93c-0.46-0.27-1.04,0.07-1.04,0.6V188.74z"></path>					</g>				</g>				<path fill="#B9D2F0" d="M401.49,182.62H87.14c1.62-2.33,4.32-3.85,7.38-3.85h299.59C397.17,178.77,399.87,180.29,401.49,182.62z     "></path>			</g>		</g>	</g>	<g>		<g>			<g>				<path fill="#007EFF" d="M275.92,155.44H195.1c-5.48,0-9.92-4.44-9.92-9.92v-1.99c0-5.48,4.44-9.92,9.92-9.92h80.82     c5.48,0,9.92,4.44,9.92,9.92v1.99C285.84,151,281.4,155.44,275.92,155.44z"></path>			</g>			<g>				<g>					<g>						<g>							<path fill="#FFFFFF" d="M275.07,138.04c-3.58,0-6.49,2.91-6.49,6.49s2.91,6.49,6.49,6.49s6.49-2.91,6.49-6.49        S278.65,138.04,275.07,138.04z M275.33,146.92v-2.27h2.93c-0.02,0.8-0.14,1.57-0.35,2.27H275.33z M277.17,149.51        c0.48-0.6,0.86-1.3,1.13-2.07h1.98c-0.83,1.49-2.24,2.53-3.88,2.9C276.67,150.1,276.93,149.82,277.17,149.51z M277.74,147.44        c-0.24,0.64-0.57,1.22-0.97,1.73c-0.62,0.79-1.24,1.2-1.44,1.31v-3.04L277.74,147.44L277.74,147.44z M275.33,141.33v-2.76        c0.08,0,0.15,0.01,0.23,0.01c0.33,0.27,1.34,1.22,2.03,2.75L275.33,141.33L275.33,141.33z M278.17,141.33        c-0.23-0.56-0.53-1.09-0.87-1.59c-0.25-0.36-0.53-0.7-0.82-1.01c1.49,0.36,2.8,1.3,3.63,2.6H278.17z M275.33,144.13v-2.27        h2.48c0.27,0.73,0.42,1.5,0.45,2.27H275.33z M278.79,144.13c-0.03-0.77-0.17-1.54-0.42-2.27h2.04        c0.36,0.71,0.57,1.48,0.62,2.27H278.79z M281.04,144.65c-0.02,0.79-0.18,1.55-0.5,2.27h-2.07c0.2-0.71,0.31-1.47,0.33-2.27        H281.04z M271.74,146.92h-2.13c-0.32-0.72-0.48-1.48-0.5-2.27h2.31C271.44,145.45,271.55,146.21,271.74,146.92z         M272.61,141.33c0.2-0.45,0.44-0.88,0.73-1.28c0.55-0.79,1.09-1.28,1.32-1.47c0.05,0,0.11-0.01,0.17-0.01v2.76L272.61,141.33        L272.61,141.33z M274.81,141.85v2.27h-2.87c0.03-0.77,0.18-1.54,0.45-2.27H274.81z M270.04,141.33        c0.85-1.33,2.18-2.27,3.71-2.62c-0.3,0.32-0.58,0.66-0.84,1.03c-0.35,0.5-0.64,1.04-0.87,1.59H270.04z M274.81,144.65v2.27        h-2.53c-0.21-0.7-0.33-1.47-0.35-2.27H274.81z M269.12,144.13c0.05-0.8,0.26-1.56,0.62-2.27h2.1        c-0.25,0.74-0.39,1.5-0.42,2.27H269.12z M271.91,147.44c0.27,0.77,0.65,1.46,1.13,2.07c0.25,0.31,0.51,0.6,0.8,0.85        c-1.66-0.35-3.12-1.43-3.96-2.92H271.91z M274.81,147.44v3.01c-0.39-0.25-1.63-1.14-2.35-3.01H274.81z"></path>						</g>					</g>				</g>			</g>		</g>		<g>			<g>				<path fill="#FFFFFF" d="M258.69,138.29c3.4,0,6.17,2.77,6.17,6.17s-2.77,6.17-6.17,6.17h-62.35c-3.4,0-6.17-2.77-6.17-6.17     s2.77-6.17,6.17-6.17H258.69 M258.69,137.65h-62.35c-3.75,0-6.81,3.05-6.81,6.81c0,3.75,3.05,6.81,6.81,6.81h62.35     c3.75,0,6.81-3.05,6.81-6.81S262.44,137.65,258.69,137.65L258.69,137.65z"></path>			</g>		</g>	</g>	<g>		<g>			<path fill="#D9E4F5" d="M368.54,219.75v113.59c0,4.04-3.28,7.32-7.32,7.32H130.57c-4.04,0-7.32-3.28-7.32-7.32V219.75    c0-4.04,3.28-7.32,7.32-7.32h230.65C365.26,212.44,368.54,215.71,368.54,219.75z"></path>			<path fill="#B4CAE3" d="M368.54,219.75v5.33H123.25v-5.33c0-4.04,3.28-7.32,7.32-7.32h230.65    C365.26,212.44,368.54,215.71,368.54,219.75z"></path>			<g>				<g>					<path fill="#3B3E7D" d="M344.98,218.64c0,1.37-1.11,2.48-2.48,2.48c-1.37,0-2.48-1.11-2.48-2.48s1.11-2.48,2.48-2.48      C343.87,216.16,344.98,217.27,344.98,218.64z"></path>				</g>				<path fill="#0060E6" d="M352.91,218.64c0,1.37-1.11,2.48-2.48,2.48c-1.37,0-2.48-1.11-2.48-2.48s1.11-2.48,2.48-2.48     C351.8,216.16,352.91,217.27,352.91,218.64z"></path>				<path fill="#007EFF" d="M360.85,218.64c0,1.37-1.11,2.48-2.48,2.48c-1.37,0-2.48-1.11-2.48-2.48s1.11-2.48,2.48-2.48     S360.85,217.27,360.85,218.64z"></path>			</g>		</g>		<g>			<path fill="#B4CAE3" d="M154.59,261.79h-15.05c-2.56,0-4.63-2.07-4.63-4.63v-15.05c0-2.56,2.07-4.63,4.63-4.63h15.05    c2.56,0,4.63,2.07,4.63,4.63v15.05C159.21,259.72,157.14,261.79,154.59,261.79z"></path>			<path fill="#007EFF" d="M151.36,258.32h-15.05c-2.56,0-4.63-2.07-4.63-4.63v-15.05c0-2.56,2.07-4.63,4.63-4.63h15.05    c2.56,0,4.63,2.07,4.63,4.63v15.05C155.99,256.25,153.92,258.32,151.36,258.32z"></path>			<g>				<path fill="#FFFFFF" d="M148.3,243.93l-6.64,2.28l6.64,2.28v3.73l-11.18-4.06v-3.9l11.18-4.06V243.93z"></path>			</g>		</g>		<g>			<path fill="#B4CAE3" d="M194.73,261.79h-15.05c-2.56,0-4.63-2.07-4.63-4.63v-15.05c0-2.56,2.07-4.63,4.63-4.63h15.05    c2.56,0,4.63,2.07,4.63,4.63v15.05C199.36,259.72,197.29,261.79,194.73,261.79z"></path>			<path fill="#007EFF" d="M191.51,258.32h-15.05c-2.56,0-4.63-2.07-4.63-4.63v-15.05c0-2.56,2.07-4.63,4.63-4.63h15.05    c2.56,0,4.63,2.07,4.63,4.63v15.05C196.13,256.25,194.06,258.32,191.51,258.32z"></path>			<g>				<path fill="#FFFFFF" d="M184.68,238.35h3.36l-5.54,15.82h-3.36L184.68,238.35z"></path>			</g>		</g>		<g>			<path fill="#B4CAE3" d="M233.45,261.79H218.4c-2.56,0-4.63-2.07-4.63-4.63v-15.05c0-2.56,2.07-4.63,4.63-4.63h15.05    c2.56,0,4.63,2.07,4.63,4.63v15.05C238.08,259.72,236.01,261.79,233.45,261.79z"></path>			<path fill="#007EFF" d="M230.23,258.32h-15.05c-2.56,0-4.63-2.07-4.63-4.63v-15.05c0-2.56,2.07-4.63,4.63-4.63h15.05    c2.56,0,4.63,2.07,4.63,4.63v15.05C234.86,256.25,232.79,258.32,230.23,258.32z"></path>			<g>				<path fill="#FFFFFF" d="M217.22,240.21l11.18,4.06v3.9l-11.18,4.06v-3.73l6.64-2.28l-6.64-2.28V240.21z"></path>			</g>		</g>		<g>			<path fill="#B4CAE3" d="M353.99,330h-15.05c-2.56,0-4.63-2.07-4.63-4.63v-15.05c0-2.56,2.07-4.63,4.63-4.63h15.05    c2.56,0,4.63,2.07,4.63,4.63v15.05C358.62,327.92,356.55,330,353.99,330z"></path>			<path fill="#007EFF" d="M350.77,326.52h-15.05c-2.56,0-4.63-2.07-4.63-4.63v-15.05c0-2.56,2.07-4.63,4.63-4.63h15.05    c2.56,0,4.63,2.07,4.63,4.63v15.05C355.39,324.45,353.32,326.52,350.77,326.52z"></path>			<g>				<g>					<g>						<g>							<path fill="#FFFFFF" d="M343.02,306.45c-4.37,0-7.93,3.56-7.93,7.93c0,4.37,3.56,7.93,7.93,7.93c4.37,0,7.93-3.56,7.93-7.93        C350.94,310.01,347.39,306.45,343.02,306.45z M343.33,317.31v-2.78h3.58c-0.02,0.98-0.16,1.92-0.42,2.78H343.33z         M345.58,320.47c0.58-0.74,1.05-1.59,1.38-2.53h2.41c-1.02,1.82-2.73,3.09-4.75,3.55        C344.97,321.19,345.29,320.85,345.58,320.47z M346.28,317.95c-0.3,0.78-0.7,1.49-1.18,2.11c-0.76,0.97-1.52,1.46-1.76,1.61        v-3.72H346.28z M343.33,310.48v-3.38c0.09,0,0.19,0.01,0.28,0.02c0.4,0.34,1.64,1.49,2.48,3.36H343.33z M346.8,310.48        c-0.28-0.68-0.64-1.34-1.07-1.95c-0.31-0.44-0.64-0.86-1-1.24c1.82,0.44,3.42,1.59,4.44,3.18L346.8,310.48L346.8,310.48z         M343.33,313.89v-2.78h3.03c0.33,0.89,0.51,1.83,0.55,2.78H343.33z M347.55,313.89c-0.04-0.94-0.21-1.88-0.51-2.78h2.49        c0.44,0.87,0.69,1.8,0.76,2.78H347.55z M350.3,314.53c-0.02,0.96-0.23,1.9-0.61,2.78h-2.53c0.24-0.87,0.38-1.8,0.4-2.78        H350.3z M338.95,317.31h-2.61c-0.39-0.88-0.59-1.81-0.61-2.78h2.82C338.57,315.51,338.7,316.44,338.95,317.31z M340,310.48        c0.24-0.55,0.54-1.07,0.89-1.57c0.67-0.96,1.33-1.57,1.61-1.8c0.07-0.01,0.13-0.01,0.2-0.01v3.38H340z M342.7,311.12v2.78        h-3.51c0.04-0.95,0.22-1.88,0.55-2.78H342.7z M336.86,310.48c1.04-1.63,2.67-2.78,4.53-3.2c-0.37,0.39-0.71,0.81-1.02,1.26        c-0.42,0.61-0.78,1.27-1.07,1.95H336.86z M342.7,314.53v2.78h-3.09c-0.26-0.86-0.4-1.79-0.42-2.78H342.7z M335.74,313.89        c0.06-0.97,0.32-1.91,0.76-2.78h2.57c-0.3,0.9-0.48,1.83-0.51,2.78H335.74z M339.15,317.95c0.33,0.94,0.8,1.79,1.38,2.53        c0.3,0.38,0.63,0.73,0.98,1.04c-2.03-0.43-3.82-1.74-4.84-3.57H339.15z M342.7,317.95v3.67c-0.48-0.3-1.99-1.39-2.87-3.67        H342.7z"></path>						</g>					</g>				</g>			</g>		</g>		<g>			<path fill="#B4CAE3" d="M235.28,274.82h-100.8c-1.55,0-2.8-1.25-2.8-2.8l0,0c0-1.55,1.25-2.8,2.8-2.8h100.8    c1.55,0,2.8,1.25,2.8,2.8l0,0C238.08,273.57,236.83,274.82,235.28,274.82z"></path>			<path fill="#B4CAE3" d="M235.28,285.19h-100.8c-1.55,0-2.8-1.25-2.8-2.8l0,0c0-1.55,1.25-2.8,2.8-2.8h100.8    c1.55,0,2.8,1.25,2.8,2.8l0,0C238.08,283.93,236.83,285.19,235.28,285.19z"></path>			<path fill="#B4CAE3" d="M235.28,295.55h-100.8c-1.55,0-2.8-1.25-2.8-2.8l0,0c0-1.55,1.25-2.8,2.8-2.8h100.8    c1.55,0,2.8,1.25,2.8,2.8l0,0C238.08,294.3,236.83,295.55,235.28,295.55z"></path>			<path fill="#B4CAE3" d="M235.28,305.92h-100.8c-1.55,0-2.8-1.25-2.8-2.8l0,0c0-1.55,1.25-2.8,2.8-2.8h100.8    c1.55,0,2.8,1.25,2.8,2.8l0,0C238.08,304.66,236.83,305.92,235.28,305.92z"></path>			<path fill="#B4CAE3" d="M235.28,316.28h-100.8c-1.55,0-2.8-1.25-2.8-2.8l0,0c0-1.55,1.25-2.8,2.8-2.8h100.8    c1.55,0,2.8,1.25,2.8,2.8l0,0C238.08,315.03,236.83,316.28,235.28,316.28z"></path>			<path fill="#B4CAE3" d="M235.28,326.64h-100.8c-1.55,0-2.8-1.25-2.8-2.8l0,0c0-1.55,1.25-2.8,2.8-2.8h100.8    c1.55,0,2.8,1.25,2.8,2.8l0,0C238.08,325.39,236.83,326.64,235.28,326.64z"></path>		</g>		<g>			<path fill="#B4CAE3" d="M321.84,300.32h-68.69c-1.54,0-2.86,1.2-2.89,2.75c-0.03,1.57,1.24,2.85,2.8,2.85h68.79    c1.55,0,2.8-1.25,2.8-2.8l0,0C324.64,301.57,323.39,300.32,321.84,300.32z"></path>			<path fill="#B4CAE3" d="M321.84,310.68h-68.69c-1.54,0-2.86,1.2-2.89,2.75c-0.03,1.57,1.24,2.85,2.8,2.85h68.79    c1.55,0,2.8-1.25,2.8-2.8l0,0C324.64,311.93,323.39,310.68,321.84,310.68z"></path>			<path fill="#B4CAE3" d="M321.84,321.05h-68.69c-1.54,0-2.86,1.2-2.89,2.75c-0.03,1.57,1.24,2.85,2.8,2.85h68.79    c1.55,0,2.8-1.25,2.8-2.8l0,0C324.64,322.3,323.39,321.05,321.84,321.05z"></path>		</g>		<g>			<path fill="#B4CAE3" d="M355.39,237.43v51.91c0,0.11-0.01,0.22-0.01,0.32c-0.05,0.58-0.23,1.12-0.51,1.58    c-0.55,0.91-1.49,1.51-2.55,1.51h-99.18c-1.2,0-2.24-0.76-2.74-1.87c-0.21-0.46-0.34-0.99-0.34-1.54v-51.91    c0-0.42,0.07-0.82,0.19-1.2c0.18-0.54,0.49-1.02,0.88-1.39c0.54-0.51,1.24-0.83,2.01-0.83h99.18c0.61,0,1.18,0.2,1.66,0.54    c0.45,0.32,0.82,0.77,1.06,1.29C355.27,236.32,355.39,236.86,355.39,237.43z"></path>			<g>				<path fill="#D9E4F5" d="M355.38,289.66c-0.05,0.58-0.23,1.12-0.51,1.58l-52.58-27.65l-1.76-0.93l-50.27-26.43     c0.18-0.54,0.49-1.02,0.88-1.39l51.15,26.9l1.76,0.93h0L355.38,289.66z"></path>			</g>			<g>				<path fill="#D9E4F5" d="M355.04,235.85l-50.99,26.82h0l-1.76,0.93l-51.89,27.29c-0.21-0.46-0.34-0.99-0.34-1.54v-0.14     l50.46-26.54l1.76-0.93l51.69-27.18C354.43,234.87,354.8,235.32,355.04,235.85z"></path>			</g>		</g>	</g>	<g>		<ellipse fill="#D9E4F5" cx="95.23" cy="463.86" rx="40.54" ry="7.9"></ellipse>		<g>			<path fill="#00A0FF" d="M72.45,331.58l-5.82,3.59c-2.5-1.55-5.34-2.46-8.25-2.66c-0.52-1.4-0.82-2.98-0.82-4.76    c0-14.38,11.33-40.94,11.33-40.94l-1.03,29.68C67.11,324.05,69.54,328.73,72.45,331.58z"></path>			<g>				<path fill="#0060E6" d="M89.01,321.36l-22.38,13.81c-5.59-3.47-12.88-3.72-18.85-0.03c-7.45,4.6-10.35,13.77-7.31,21.66     c0.39,1.02,0.88,2.01,1.48,2.98c5.19,8.42,16.22,11.03,24.64,5.83c2.99-1.84,5.24-4.42,6.68-7.36c1.44-2.93,2.05-6.23,1.75-9.51     l78.8-48.62l0.92,1.49l19.45-0.57l9.16-17l0.06-0.12l-1.56-3.1l-4.98,2.51l-1.05,0.53l-0.78,0.29l-5.26,9.75l-11.07,0.33     l-2.91-4.71l-2.91-4.71l0.17-0.31l5.09-9.44l11.07-0.33l3.98-7.38l-3.33,0.1l-16.12,0.47l-9.23,17.13l0.92,1.49L89.01,321.36z      M61.79,341.81l3.36,5.44l1.75,2.84l-4.62,8.56l-9.73,0.28l-5.11-8.28l0.17-0.31l4.45-8.26L61.79,341.81z"></path>				<path fill="#007EFF" d="M89.01,321.36l-22.38,13.81c-5.59-3.47-12.88-3.72-18.85-0.03c-7.45,4.6-10.35,13.77-7.31,21.66     c5.24,8.28,16.17,10.82,24.53,5.67c2.99-1.84,5.24-4.42,6.68-7.36c1.44-2.93,2.05-6.23,1.75-9.51l78.8-48.62l0.92,1.49     l19.45-0.57l7.48-13.89l1.75-3.24l-8.38,0.25l-5.26,9.75l-11.07,0.33l-2.91-4.71l-1.15-1.88l-1.75-2.84l5.26-9.75l11.07-0.33     l2.23-4.14l-16.12,0.47l-9.23,17.13l0.92,1.49L89.01,321.36z M60.21,338.67l5.11,8.28l-0.17,0.31l-4.45,8.25l-9.73,0.29     l-3.36-5.44l-1.75-2.84l4.62-8.57L60.21,338.67z"></path>			</g>			<g>				<g>					<path fill="#007EFF" d="M99.65,260.59c0,1.84,1.5,3.33,3.33,3.33c1.84,0,3.33-1.5,3.33-3.33c0-0.23-0.02-0.46-0.07-0.68      c-0.05-0.22-0.11-0.43-0.2-0.63c0,0,0,0,0,0c-0.51-1.19-1.69-2.02-3.06-2.02c-0.21,0-0.42,0.02-0.62,0.06h0      c-0.36,0.07-0.7,0.19-1.01,0.36C100.34,258.25,99.65,259.34,99.65,260.59z M100.17,260.59c0-1.24,0.81-2.3,1.92-2.67      c0.28-0.1,0.58-0.15,0.89-0.15c0.22,0,0.43,0.02,0.63,0.07c0.49,0.11,0.94,0.36,1.3,0.7c0.37,0.35,0.64,0.8,0.78,1.3      c0.07,0.24,0.1,0.49,0.1,0.74c0,1.55-1.26,2.81-2.81,2.81C101.43,263.4,100.17,262.14,100.17,260.59z"></path>				</g>				<g>					<path fill="#FB9A83" d="M86.11,270.71v6.62c0,0,1.97,3.38,4.65,3.6c2.67,0.23,5.04-2.9,5.04-2.9v-6.86L86.11,270.71z"></path>					<path fill="#FF6D6B" d="M93.14,272.31c0,0,0.43,2.35,2.67,3.21v-3.04L93.14,272.31z"></path>				</g>				<path fill="#FB9A83" d="M95.05,273.62c-9.98,2.82-13.25-4.89-14.65-9.77c-0.15-0.54-0.29-1.14-0.42-1.79     c0-0.02-0.01-0.05-0.02-0.08c-0.14-0.72-0.25-1.49-0.35-2.29c-0.07-0.59-0.14-1.18-0.19-1.78c-0.14-1.46-0.24-2.92-0.3-4.22     c-0.14-2.97,1.64-5.7,4.41-6.76c4-1.54,10.09-2.76,15.85,0.51c2.13,1.21,3.46,3.44,3.51,5.89c0,0,1.01,3.91,0.53,5.66     s-0.58,2.28-0.74,4.62c-0.16,2.33-1.49,7.95-2.86,9.12C98.45,273.89,95.05,273.62,95.05,273.62z"></path>				<g>					<g>						<g>							<g>								<path fill="#FF6D6B" d="M98.76,263.28c-0.13-0.03-0.24-0.15-0.25-0.29c-0.12-2.13-2.02-3.41-2.04-3.42         c-0.14-0.1-0.18-0.29-0.09-0.44c0.1-0.14,0.29-0.18,0.43-0.09c0.09,0.06,2.18,1.46,2.32,3.91c0.01,0.17-0.12,0.32-0.3,0.33         C98.82,263.29,98.79,263.28,98.76,263.28z"></path>							</g>						</g>					</g>					<g>						<g>							<g>								<path fill="#FF6D6B" d="M96.89,261.8c-0.06-0.01-0.11-0.04-0.15-0.09c-0.12-0.12-0.12-0.32,0-0.45         c0.02-0.02,0.51-0.5,1.36-0.67c0.17-0.04,0.34,0.08,0.37,0.24c0.04,0.17-0.07,0.34-0.25,0.37c-0.65,0.13-1.04,0.5-1.04,0.5         C97.1,261.79,96.99,261.82,96.89,261.8z"></path>							</g>						</g>					</g>				</g>				<g>					<path fill="#021147" d="M78.78,258.39c0.4,5.29,2.72,10.99,2.72,10.99c2.53,5.58,7.25,4.56,9.79,3.8      c1.86-0.56,4.39-2.62,5.42-3.57c0.79-0.73,1.27-1.8,1.55-2.7c0.21-0.65-0.27-1.31-0.95-1.37c-1.19-0.11-2.42-1.12-2.72-3.92      c-0.5-4.74,2.66-4.75,2.66-4.75c1.92-0.17,2.94,2.23,2.94,2.23s1.18-1.54,0.94-4.06c-0.21-2.22,2.02-0.64,2.02-0.64      s3.14-2.73,3.21-5.42s-1.5-2.79-2.9-3.48s1.84-3.23,0.29-4.58c-1.56-1.34-3.32-1.49-4.6-0.78s-1.7-2.76-3.64-2.83      c-1.94-0.07-3.18,2.05-4.54,1.2c-1.36-0.85-4.83-2.12-6.38,0.49s-1.98,3.29-3.25,3.43c-1.27,0.14-4.81,2.58-4.1,6.61      C77.93,253.09,78.54,255.3,78.78,258.39z"></path>				</g>				<g>					<path fill="#007EFF" d="M98.05,256.95c0.33,0.1,0.62,0.27,0.87,0.47c0.64-0.07,1.31-0.01,1.98,0.14      c0.15,0.04,0.3,0.07,0.45,0.12c0.25,0.07,0.49,0.15,0.73,0.24c0.5,0.18,0.98,0.4,1.43,0.63c0.94,0.47,1.72,0.98,2.18,1.3      c0.27,0.19,0.42,0.3,0.43,0.31l0.12-0.25c-0.05-0.22-0.11-0.43-0.2-0.63c0,0,0,0,0,0c-0.26-0.18-0.65-0.44-1.13-0.73      c-0.38-0.23-0.82-0.47-1.3-0.7c-0.02-0.01-0.03-0.02-0.05-0.02c-0.38-0.18-0.78-0.35-1.2-0.51h0      c-0.42-0.15-0.87-0.29-1.31-0.39C100.04,256.7,99.01,256.66,98.05,256.95z"></path>				</g>			</g>			<g>				<g>					<path fill="#007EFF" d="M111.41,468.06c0.73,0.1,1.61,0.14,2.36-0.03l1.11-0.36l1.82-0.55c0,0,6.53-2.56,8.84-4.81      c2.31-2.25,1.9-4.72-1.7-5.92c-3.6-1.2-6.82-0.06-8.75-0.83c0,0-5.77,0.48-5.44,3.57c-0.07,2.87-0.25,4.39,0.14,7.28      C109.88,467.27,110.55,467.95,111.41,468.06z"></path>					<g>						<path fill="#FFFFFF" d="M114.6,456.94c-0.1-0.02-0.19-0.08-0.25-0.17c-0.11-0.18-0.05-0.42,0.13-0.53       c0.06-0.04,1.5-0.91,2.76-0.86c1.68,0.06,2.3,1.37,2.32,1.42c0.09,0.19,0,0.42-0.19,0.51s-0.42,0-0.51-0.19       c-0.02-0.04-0.45-0.93-1.65-0.98c-1.03-0.04-2.32,0.74-2.33,0.75C114.8,456.94,114.69,456.96,114.6,456.94z"></path>					</g>					<g>						<path fill="#FFFFFF" d="M115.9,456.8c-0.1-0.02-0.19-0.08-0.25-0.17c-0.11-0.18-0.05-0.42,0.13-0.53       c0.06-0.04,1.5-0.91,2.76-0.86c1.68,0.06,2.3,1.37,2.32,1.42c0.09,0.19,0,0.42-0.19,0.51s-0.42,0-0.51-0.19       c-0.02-0.04-0.46-0.93-1.65-0.98c-1.03-0.04-2.32,0.74-2.33,0.75C116.09,456.8,115.99,456.82,115.9,456.8z"></path>					</g>					<g>						<path fill="#FFFFFF" d="M117.16,456.53c-0.1-0.02-0.19-0.08-0.25-0.17c-0.11-0.18-0.05-0.42,0.13-0.53       c0.06-0.04,1.5-0.91,2.76-0.86c1.68,0.06,2.3,1.37,2.32,1.42c0.09,0.19,0,0.42-0.19,0.51s-0.42,0-0.51-0.19       c-0.02-0.04-0.46-0.93-1.65-0.98c-1.03-0.04-2.32,0.74-2.33,0.75C117.36,456.54,117.25,456.55,117.16,456.53z"></path>					</g>				</g>				<path fill="#FB9A83" d="M116.4,451.6l-0.35,6.06c-2.24,0.62-3.92,0.9-5.19-0.08l-0.36-6.42L116.4,451.6z"></path>				<g>					<g>						<path fill="#3B3E7D" d="M118.24,454.11c-3.35,2.07-8.72,0.86-8.72,0.86c0.64-0.11-4.68-39.93-5.38-45.92       c-0.65-5.53-7.54-21.6-10.44-30.71c-0.2-0.63-0.38-1.23-0.54-1.79c-0.23-0.8-0.44-1.56-0.65-2.28       c-1.28-4.46-2.12-7.3-2.12-7.3l19.14-4.18c0.57,2.15,1.11,4.26,1.61,6.36c0.11,0.46,0.22,0.91,0.33,1.36       c0.07,0.29,0.13,0.57,0.2,0.86C123.41,421.21,118.24,454.11,118.24,454.11z"></path>					</g>					<g>						<path fill="#18285D" d="M111.47,370.49c-6.57,2.41-13,3.49-18.96,3.77c-1.28-4.46-2.12-7.3-2.12-7.3l19.14-4.18       c0.57,2.15,1.11,4.26,1.61,6.36C111.25,369.59,111.36,370.04,111.47,370.49z"></path>					</g>				</g>			</g>			<g>				<g>					<path fill="#007EFF" d="M61.79,466.73c0.67,0.3,1.51,0.59,2.27,0.63l1.16-0.04l1.9-0.02c0,0,6.98-0.64,9.83-2.15      c2.85-1.51,3.14-4,0.02-6.16c-3.12-2.16-6.53-1.97-8.17-3.25c0,0-5.67-1.15-6.22,1.9c-0.87,2.73-1.46,4.14-1.9,7.03      C60.54,465.54,61,466.38,61.79,466.73z"></path>					<g>						<path fill="#FFFFFF" d="M67.96,456.94c-0.09-0.05-0.16-0.13-0.19-0.24c-0.06-0.2,0.07-0.42,0.27-0.47       c0.07-0.02,1.69-0.45,2.89-0.05c1.6,0.53,1.82,1.96,1.83,2.02c0.03,0.21-0.11,0.4-0.32,0.44s-0.4-0.11-0.44-0.33       c-0.01-0.04-0.18-1.02-1.31-1.4c-0.98-0.33-2.43,0.06-2.45,0.07C68.15,457,68.04,456.99,67.96,456.94z"></path>					</g>					<g>						<path fill="#FFFFFF" d="M69.24,457.17c-0.09-0.05-0.16-0.13-0.19-0.24c-0.06-0.2,0.07-0.42,0.27-0.47       c0.07-0.02,1.69-0.45,2.89-0.05c1.6,0.53,1.82,1.96,1.83,2.02c0.03,0.21-0.11,0.4-0.32,0.44s-0.41-0.11-0.44-0.33       c-0.01-0.04-0.18-1.02-1.31-1.4c-0.98-0.33-2.43,0.06-2.45,0.07C69.43,457.23,69.33,457.21,69.24,457.17z"></path>					</g>					<g>						<path fill="#FFFFFF" d="M70.53,457.27c-0.09-0.05-0.16-0.13-0.19-0.24c-0.06-0.2,0.07-0.42,0.27-0.47       c0.07-0.02,1.69-0.45,2.89-0.05c1.6,0.53,1.82,1.96,1.83,2.02c0.03,0.21-0.11,0.4-0.32,0.44s-0.41-0.11-0.44-0.33       c-0.01-0.04-0.18-1.02-1.31-1.4c-0.98-0.33-2.43,0.06-2.45,0.07C70.72,457.33,70.61,457.31,70.53,457.27z"></path>					</g>				</g>				<path fill="#FB9A83" d="M71.18,452.32l-2.03,5.72c-2.32-0.03-4.02-0.23-4.96-1.53l1.45-6.27L71.18,452.32z"></path>				<g>					<g>						<path fill="#3B3E7D" d="M89.4,365.11c-0.05,2.22-0.13,4.4-0.23,6.55c-0.04,0.87-0.08,1.76-0.13,2.66       c-0.09,1.55-0.19,3.15-0.31,4.77c-0.94,12.97-2.76,27.6-4.17,34.95c-0.94,4.87-12.31,41.19-12.31,41.19       c-3.74,1.03-8.48-1.54-8.61-1.61c0.65,0,5.42-43.6,6.92-46.79c0.94-2.01,0.08-7.29-0.62-29.85c-0.03-1.04-0.07-2.12-0.1-3.24       c-0.02-0.74-0.04-1.44-0.05-2.11c-0.08-4.79,0.06-7.86,0.06-7.86L89.4,365.11z"></path>					</g>					<g>						<path fill="#18285D" d="M69.86,363.78l19.55,1.33c-0.05,2.22-0.13,4.4-0.23,6.55c-0.04,0.87-0.08,1.76-0.13,2.66       c-7.62-0.04-14.29-1.32-19.25-2.69C69.71,366.85,69.86,363.78,69.86,363.78z"></path>					</g>				</g>			</g>			<g>				<g>					<path fill="#00A0FF" d="M111.47,363.89c0,0-11.66,4.58-22.07,4.63c-10.4,0.05-20.36-0.94-20.36-0.94s-0.87-15.72-1.44-33.29      c-0.04-1.15-0.07-2.31-0.11-3.47c-0.04-1.29-0.07-2.58-0.11-3.87c-0.03-1.15-0.06-2.31-0.08-3.47      c-0.03-1.48-0.06-2.95-0.09-4.41c-0.02-1.17-0.04-2.32-0.05-3.46c-0.16-13.24-0.79-25.18,1.34-27.86      c4.38-5.51,17.61-11.04,17.61-11.04c2.94,0.83,6.25,1.11,10,0.72c0,0,7.41,5.6,12.6,9.38c4.1,2.99,0.86,13.67,1.09,28.34      c0.01,1.12,0.04,2.26,0.06,3.41c0.01,0.37,0.01,0.75,0.02,1.13c0.02,1.02,0.05,2.11,0.08,3.27c0.03,1.08,0.06,2.22,0.1,3.4      c0.04,1.24,0.07,2.53,0.12,3.85c0.04,1.12,0.07,2.26,0.11,3.41C110.78,347.81,111.47,363.89,111.47,363.89z"></path>				</g>				<g>					<path fill="#007EFF" d="M86.08,284.23c6.45,0.6,10.73-2.83,10.93-2.98c0.16-0.13,0.18-0.36,0.05-0.52      c-0.13-0.16-0.36-0.18-0.52-0.05c-0.05,0.04-5.04,4.02-12.14,2.56c-0.2-0.04-0.4,0.09-0.44,0.29c-0.04,0.2,0.09,0.4,0.29,0.44      C84.88,284.09,85.49,284.18,86.08,284.23z"></path>				</g>				<g>					<g>						<path fill="#007EFF" d="M109.87,318.57c-8.88,1.71-16.8,2.29-23.46,2.29c-8.9,0-15.54-1.04-19.2-1.79       c-0.02-1.17-0.04-2.32-0.05-3.46c5.57,1.19,21.47,3.71,42.65-0.45C109.83,316.27,109.85,317.41,109.87,318.57z"></path>					</g>					<g>						<path fill="#007EFF" d="M110.07,326.37c-8.96,1.74-16.95,2.33-23.65,2.33c-8.77,0-15.34-1-19.03-1.75       c-0.03-1.15-0.06-2.31-0.08-3.47c5.71,1.21,21.58,3.66,42.67-0.51C110,324.05,110.03,325.19,110.07,326.37z"></path>					</g>					<g>						<path fill="#007EFF" d="M110.3,333.63c-9.05,1.77-17.12,2.37-23.89,2.37c-8.6,0-15.09-0.96-18.81-1.71       c-0.04-1.15-0.07-2.31-0.11-3.47c5.89,1.22,21.73,3.59,42.69-0.6C110.22,331.34,110.26,332.48,110.3,333.63z"></path>					</g>				</g>			</g>			<path fill="#00A0FF" d="M109.62,287.75c0,0,18.29,28.36,21.3,26.5c4.55-2.81,8.44-5.21,8.44-5.21l4.3-2.65    c0,0-2.55,16.62-12.63,19.96c-6.32,2.1-23.5-19.5-23.5-19.5S107.53,292.23,109.62,287.75z"></path>		</g>	</g>	<g>		<path fill="#007EFF" d="M293.47,346.35c-19.52-26.24-31.84-50.45-31.84-50.45l0.62,18.14c0,0,18.55,29.88,24.34,36.09   C288.9,350.13,293.47,349.35,293.47,346.35z"></path>		<g>			<path fill="#00A0FF" d="M245.11,291.55c0,0-3.22,0.86-6.35,1.64c-2.88,0.72-4.48,1.56-4.48,1.56s-0.29,27.54,0,35.9    c0.29,8.36-2.42,16.03-1.89,20.91c0,0,23.89,1.69,28.98-0.33c0,0-1.97-21.5,0.25-27.54c2.26-6.13,3.45-10.41,2.92-12.91    c-1.36-6.42-2.98-7.38-2.56-13.29C262.41,291.58,245.11,291.55,245.11,291.55z"></path>			<g>				<path fill="#007EFF" d="M255.46,301.49c-6.48,0-10.43-3.81-10.6-3.99c-0.15-0.14-0.15-0.38,0-0.52s0.38-0.15,0.52,0     c0.05,0.05,4.64,4.47,11.85,3.68c0.2-0.02,0.39,0.12,0.41,0.33s-0.12,0.39-0.33,0.41C256.67,301.46,256.05,301.49,255.46,301.49     z"></path>			</g>			<g>				<path fill="#007EFF" d="M239.99,335.8c-0.2,0-0.36-0.16-0.37-0.36c-0.01-0.2,0.15-0.38,0.36-0.38c0.1,0,9.96-0.46,16.74-9.41     c0.12-0.16,0.36-0.2,0.52-0.07c0.16,0.12,0.2,0.36,0.07,0.52c-6.99,9.24-17.2,9.7-17.3,9.7     C239.99,335.8,239.99,335.8,239.99,335.8z"></path>			</g>			<g>				<path fill="#007EFF" d="M239.66,339.3c-0.78,0-1.23-0.05-1.25-0.05c-0.2-0.02-0.35-0.21-0.33-0.41c0.02-0.2,0.21-0.35,0.41-0.33     c0.1,0.01,9.92,1,17.94-6.86c0.15-0.14,0.38-0.14,0.52,0.01c0.14,0.15,0.14,0.38-0.01,0.52     C250.39,338.62,242.64,339.3,239.66,339.3z"></path>			</g>		</g>		<g>			<g>				<polygon fill="#FB9A83" points="334.89,365.32 341.19,367.55 339.06,373.28 332.25,371.3     "></polygon>				<g>					<g>						<path fill="#007EFF" d="M340.25,368.35c0,0-1.39-2.12-0.89-3.22s10.59-7.27,12.26-10.04c1.66-2.77,3.64-1.39,4.57-0.43       s-9.12,23.63-9.12,23.63s-7.15-1.89-8.99-3.42S339.9,370.86,340.25,368.35z"></path>						<g>							<g>								<path fill="#FFFFFF" d="M346.84,365.3c-0.01,0.12-0.06,0.23-0.16,0.31c-0.19,0.16-0.47,0.14-0.63-0.05         c-0.05-0.06-1.3-1.55-1.47-3c-0.23-1.93,1.16-2.87,1.22-2.9c0.2-0.14,0.48-0.08,0.62,0.13c0.14,0.2,0.08,0.48-0.13,0.62         c-0.04,0.03-0.98,0.68-0.82,2.06c0.14,1.18,1.26,2.52,1.27,2.53C346.81,365.08,346.85,365.19,346.84,365.3z"></path>							</g>							<g>								<path fill="#FFFFFF" d="M345.21,366.12c-0.01,0.12-0.06,0.23-0.16,0.31c-0.19,0.16-0.47,0.14-0.63-0.05         c-0.05-0.06-1.3-1.55-1.47-3c-0.23-1.93,1.16-2.87,1.22-2.9c0.2-0.14,0.48-0.08,0.62,0.13c0.14,0.2,0.08,0.48-0.13,0.62         c-0.04,0.03-0.98,0.68-0.82,2.06c0.14,1.19,1.26,2.52,1.27,2.53C345.18,365.89,345.21,366.01,345.21,366.12z"></path>							</g>							<g>								<path fill="#FFFFFF" d="M348.41,363.96c-0.01,0.12-0.06,0.23-0.16,0.31c-0.19,0.16-0.47,0.14-0.63-0.05         c-0.05-0.06-1.3-1.55-1.47-3c-0.23-1.93,1.16-2.87,1.22-2.9c0.2-0.14,0.48-0.08,0.62,0.13c0.14,0.2,0.08,0.48-0.13,0.62         c-0.04,0.03-0.98,0.68-0.82,2.06c0.14,1.19,1.26,2.52,1.27,2.53C348.38,363.74,348.42,363.85,348.41,363.96z"></path>							</g>						</g>					</g>				</g>			</g>			<g>				<g>					<g>						<g>							<g>								<path fill="#021147" d="M251.12,353.99c0,0,25.49-7.42,38.25-7.93c12.77-0.5,47.14,18.47,47.14,18.47         c0.82,1.99,0.28,4.21-1.05,6.21c-0.19,0.29-0.39,0.56-0.61,0.82c-0.47,0.6-1.01,1.15-1.61,1.68c0,0-25.38-3.25-42.33-12.24         c0,0-23.8,5.93-37.51,5.55C253.4,366.53,247.74,361.82,251.12,353.99"></path>							</g>						</g>					</g>				</g>			</g>		</g>		<g>			<g>				<ellipse fill="#021147" cx="251.36" cy="270.25" rx="13.58" ry="13.58"></ellipse>				<circle fill="#021147" cx="246.41" cy="256.97" r="8.32"></circle>				<g>					<path fill="#FF6D6B" d="M261.11,274c0,0,2.06-2.16,3.25-0.1c1.18,2.06-1.29,7.57-4.51,5.86L261.11,274z"></path>					<path fill="#FFFFFF" d="M261.38,279.51c-0.03,0.34,0.22,0.64,0.55,0.67c0.34,0.03,0.64-0.22,0.67-0.55      c0.03-0.34-0.22-0.64-0.55-0.67C261.71,278.92,261.41,279.17,261.38,279.51z"></path>					<g>						<g>							<g>								<path fill="#ED495C" d="M260.74,278.07c0.12,0.01,0.24-0.05,0.29-0.17c0.69-1.71,2.67-2.24,2.69-2.24         c0.15-0.04,0.24-0.19,0.2-0.33c-0.04-0.14-0.2-0.23-0.35-0.19c-0.09,0.02-2.28,0.6-3.07,2.57c-0.06,0.14,0.02,0.3,0.17,0.35         C260.69,278.06,260.71,278.07,260.74,278.07z"></path>							</g>						</g>					</g>					<g>						<g>							<g>								<path fill="#ED495C" d="M262.76,277.37c0.05,0.01,0.11,0,0.16-0.03c0.14-0.07,0.19-0.23,0.12-0.36         c-0.01-0.02-0.3-0.55-0.98-0.92c-0.14-0.07-0.31-0.03-0.39,0.1c-0.08,0.13-0.03,0.3,0.11,0.37         c0.53,0.29,0.76,0.69,0.76,0.69C262.58,277.31,262.67,277.36,262.76,277.37z"></path>							</g>						</g>					</g>				</g>				<path fill="#FB9A83" d="M245.78,284.56l-0.67,6.99c0,0,3.01,2.82,5.52,3.27c2.51,0.46,3.67-2.44,3.67-2.44l0.62-6.5     L245.78,284.56z"></path>				<path fill="#FF6D6B" d="M245.71,285.24l-0.27,2.79c1.52,2.05,4.47,3.01,9.01,2.77l0.41-4.24L245.71,285.24z"></path>				<path fill="#FB9A83" d="M261.96,276.76c-0.14,0.67-0.31,1.34-0.49,2.02c-1.24,4.47-4.58,9.1-8.29,9.58     c-8.01,1.03-10.67-5.43-11.49-10.1c-0.09-0.52,0.23-1.07,0.17-1.68c-0.12-1.44-0.54-3.1-0.52-4.7c0.01-1.11,0.05-2.2,0.1-3.18     c0.14-2.77,1.98-5.16,4.57-5.91c3.74-1.09,9.32-1.7,14.21,1.83c1.81,1.3,2.81,3.5,2.64,5.78     C262.72,272.14,262.46,274.41,261.96,276.76z"></path>				<g>					<g>						<g>							<path fill="#FF6D6B" d="M252.06,279.36c-0.15-0.01-0.26-0.13-0.28-0.28c-0.01-0.17,0.12-0.32,0.28-0.33l1.06-0.08l-1.07-3.97        c-0.04-0.16,0.05-0.33,0.21-0.38c0.16-0.04,0.33,0.05,0.38,0.21l1.27,4.69l-1.8,0.13        C252.09,279.36,252.08,279.36,252.06,279.36z"></path>						</g>					</g>				</g>				<g>					<path fill="#021147" d="M259.67,268.82c2.93,1.69,2.03,6.31,1.83,9.81c-0.01,0.14,0.76-2.5,0.84-2.55      c0.52-2.4,0.79-4.71,0.93-6.48c0.18-2.32-0.89-4.56-2.8-5.9c-5.17-3.62-11.04-3.01-14.98-1.92c-2.73,0.76-4.66,3.18-4.8,6.01      c-0.05,1-0.09,2.11-0.1,3.24c0.48,0.35,1.71,0.61,1.68,1.43c-0.07,2.17-0.23,5.86,0.22,5.74c0.53-0.14,1.16-5.08,0.93-6.66      c0,0,0.81-1.07,3.77-1.9c3.79-1.06,7.52-2.81,7.52-2.81s1.47-0.7,2.09-1.57C256.81,265.27,257.44,267.53,259.67,268.82z"></path>				</g>				<g>					<path fill="#021147" d="M256.63,274.79c-0.06,0.67,0.23,1.25,0.66,1.29s0.82-0.47,0.89-1.14c0.06-0.67-0.23-1.25-0.66-1.29      C257.1,273.61,256.7,274.12,256.63,274.79z"></path>				</g>				<g>					<path fill="#021147" d="M247.54,273.95c-0.06,0.67,0.23,1.25,0.66,1.29c0.43,0.04,0.82-0.47,0.89-1.14      c0.06-0.67-0.23-1.25-0.66-1.29C248.01,272.77,247.61,273.28,247.54,273.95z"></path>				</g>				<g>					<path fill="#021147" d="M259.2,271.45c-0.61-0.18-1.85-0.5-3.19-0.58c-0.35-0.02-0.66,0.22-0.64,0.5l0,0.01      c0.02,0.23,0.24,0.4,0.53,0.41c0.92,0.02,3.3,0.26,4.38,0.7c0.05-0.16-0.05-0.34-0.19-0.5      C259.87,271.73,259.55,271.55,259.2,271.45z"></path>				</g>				<g>					<path fill="#021147" d="M246.77,270.41c0.63-0.07,1.9-0.17,3.24-0.01c0.35,0.04,0.61,0.33,0.54,0.61l0,0.01      c-0.06,0.22-0.31,0.35-0.59,0.31c-0.91-0.14-3.29-0.32-4.43-0.08c-0.02-0.16,0.1-0.33,0.27-0.46      C246.06,270.56,246.4,270.45,246.77,270.41z"></path>				</g>				<path fill="#FFFFFF" d="M255.26,281.5c-0.33,1.05-1.26,2.94-3.79,2.7c-2.53-0.24-3.07-2.1-3.2-3.36L255.26,281.5z"></path>				<g>					<path fill="#FF6D6B" d="M251.33,286.03c0.73,0.07,1.41-0.26,1.44-0.28c0.15-0.07,0.21-0.25,0.14-0.4      c-0.07-0.15-0.25-0.21-0.4-0.14l0,0c-0.01,0-0.56,0.27-1.12,0.22c-0.6-0.06-1.11-0.43-1.12-0.43c-0.13-0.1-0.32-0.07-0.42,0.06      s-0.07,0.32,0.06,0.42C249.94,285.5,250.56,285.96,251.33,286.03z"></path>				</g>			</g>			<g>				<path fill="#FB9A83" d="M242.23,272.18c0,0-1.89-2.8-3.33-1.05c-1.44,1.75-0.18,7.45,3.04,6.4L242.23,272.18z"></path>				<path fill="#FFFFFF" d="M239.98,277.47c-0.03,0.34,0.22,0.64,0.55,0.67c0.34,0.03,0.64-0.22,0.67-0.55     c0.03-0.34-0.22-0.64-0.55-0.67C240.31,276.88,240.01,277.13,239.98,277.47z"></path>				<g>					<path fill="#FF6D6B" d="M241.42,275.75c-0.11-0.01-0.21-0.1-0.23-0.21c-0.32-1.75-2.02-2.61-2.04-2.62      c-0.13-0.06-0.18-0.22-0.12-0.35s0.22-0.18,0.35-0.12c0.08,0.04,1.96,0.98,2.32,3c0.03,0.14-0.07,0.28-0.21,0.3      C241.47,275.76,241.45,275.76,241.42,275.75z"></path>				</g>				<g>					<g>						<g>							<path fill="#FF6D6B" d="M239.72,274.72c-0.05-0.01-0.1-0.02-0.14-0.05c-0.11-0.09-0.13-0.26-0.04-0.37        c0.01-0.02,0.37-0.47,1.06-0.7c0.14-0.05,0.29,0.03,0.33,0.17c0.05,0.14-0.03,0.29-0.16,0.33c-0.53,0.18-0.81,0.52-0.81,0.52        C239.89,274.7,239.8,274.73,239.72,274.72z"></path>						</g>					</g>				</g>			</g>			<g>				<g>					<path fill="#FFFFFF" d="M251.72,273.4c0.02-0.18-0.01-0.36-0.06-0.52c-0.15-0.45-0.55-0.79-1.05-0.85l-4.43-0.52      c-0.35-0.04-0.68,0.06-0.93,0.26c-0.14,0.11-0.26,0.25-0.34,0.41c-0.07,0.13-0.12,0.28-0.14,0.43l-0.07,0.57      c-0.11,0.96,0.15,1.92,0.74,2.64c0.58,0.71,1.29,1.13,2.11,1.24l0.12,0.01c0.95,0.11,1.88-0.15,2.63-0.74      c0.76-0.6,1.25-1.46,1.36-2.42l0.06-0.48C251.72,273.42,251.73,273.41,251.72,273.4z M251.14,273.85      c-0.1,0.83-0.51,1.56-1.16,2.07c-0.64,0.51-1.44,0.73-2.25,0.63l-0.11-0.01c-0.68-0.1-1.28-0.45-1.77-1.05      c-0.49-0.61-0.72-1.43-0.62-2.24l0.07-0.57c0.05-0.41,0.42-0.7,0.82-0.65l4.43,0.52c0.4,0.05,0.7,0.42,0.65,0.82L251.14,273.85      z"></path>				</g>				<g>					<path fill="#FFFFFF" d="M261.1,274.2c-0.02-0.18-0.09-0.35-0.19-0.49c-0.2-0.3-0.53-0.52-0.91-0.57l-4.43-0.52      c-0.51-0.06-0.99,0.2-1.24,0.62c-0.08,0.14-0.14,0.3-0.16,0.47c0,0.01,0,0.02-0.01,0.02l-0.07,0.57      c-0.11,0.96,0.16,1.92,0.74,2.64c0.58,0.71,1.29,1.13,2.1,1.24l0.12,0.01c0.95,0.11,1.88-0.15,2.63-0.74      c0.76-0.6,1.25-1.46,1.36-2.42l0.06-0.48C261.12,274.42,261.12,274.31,261.1,274.2z M260.53,274.96      c-0.1,0.83-0.51,1.56-1.16,2.07c-0.64,0.51-1.44,0.73-2.25,0.63l-0.11-0.01c-0.68-0.1-1.28-0.45-1.77-1.05      c-0.49-0.61-0.72-1.43-0.62-2.24l0.07-0.57c0.05-0.41,0.42-0.7,0.82-0.65l4.43,0.52c0.4,0.05,0.7,0.42,0.65,0.82L260.53,274.96      z"></path>				</g>				<g>					<path fill="#FFFFFF" d="M245.26,271.77c-0.42-0.27-1.53-0.88-3.17-0.95l0.14,0.54c1.36,0.09,2.31,0.58,2.7,0.82      c0.13,0.08,0.2,0.13,0.2,0.13l0.33-0.41C245.43,271.89,245.37,271.84,245.26,271.77z"></path>				</g>				<g>					<path fill="#FFFFFF" d="M251.54,273.43l-0.11-0.51c0.03-0.01,0.79-0.17,1.6-0.08c0.86,0.1,1.38,0.43,1.4,0.44l-0.28,0.44      c0,0-0.45-0.28-1.18-0.36C252.26,273.28,251.55,273.43,251.54,273.43z"></path>				</g>				<g>					<path fill="#FFFFFF" d="M262.58,273.41c-1,0.05-1.84,0.34-1.89,0.36l0.17,0.49c0.01,0,0.88-0.3,1.85-0.33L262.58,273.41z"></path>				</g>			</g>		</g>		<g>			<g>				<polygon fill="#FB9A83" points="279.78,400.58 277.52,407.28 271.6,406.72 273.61,399.58     "></polygon>				<g>					<g>						<path fill="#007EFF" d="M277.1,407.05c0,0,1.51-2.04,2.71-1.95c1.2,0.08,10.49,7.42,13.66,8.02c3.18,0.6,2.57,2.94,1.99,4.13       s-25.32-0.38-25.32-0.38s-0.7-7.36,0.1-9.62C271.04,405,274.62,407.59,277.1,407.05z"></path>						<g>							<g>								<path fill="#FFFFFF" d="M282.24,412.17c-0.11,0.03-0.24,0.02-0.35-0.04c-0.21-0.12-0.29-0.39-0.17-0.61         c0.04-0.07,1.01-1.76,2.31-2.42c1.73-0.88,3.09,0.1,3.15,0.14c0.2,0.14,0.24,0.42,0.09,0.62c-0.15,0.2-0.42,0.24-0.62,0.09         c-0.04-0.03-0.98-0.69-2.22-0.06c-1.06,0.54-1.93,2.05-1.94,2.07C282.44,412.07,282.34,412.14,282.24,412.17z"></path>							</g>							<g>								<path fill="#FFFFFF" d="M280.91,410.92c-0.11,0.03-0.24,0.02-0.35-0.04c-0.21-0.12-0.29-0.39-0.17-0.61         c0.04-0.07,1.01-1.76,2.31-2.42c1.73-0.88,3.09,0.1,3.15,0.14c0.2,0.15,0.24,0.42,0.09,0.62c-0.14,0.2-0.42,0.24-0.62,0.09         c-0.04-0.03-0.98-0.69-2.22-0.06c-1.07,0.54-1.93,2.05-1.94,2.06C281.11,410.82,281.02,410.89,280.91,410.92z"></path>							</g>							<g>								<path fill="#FFFFFF" d="M284.04,413.18c-0.11,0.03-0.24,0.02-0.35-0.04c-0.21-0.12-0.29-0.39-0.17-0.61         c0.04-0.07,1.01-1.76,2.31-2.42c1.73-0.88,3.09,0.1,3.15,0.14c0.2,0.15,0.24,0.42,0.09,0.62c-0.14,0.2-0.42,0.24-0.62,0.09         c-0.04-0.03-0.98-0.68-2.22-0.06c-1.07,0.54-1.93,2.05-1.94,2.06C284.24,413.08,284.14,413.15,284.04,413.18z"></path>							</g>						</g>					</g>				</g>			</g>			<g>				<path fill="#3B3E7D" d="M232.04,354.53c-0.32,2.74,0.14,5.53,1.43,7.97c1.9,3.59,6.01,7.35,14.84,6.89     c18.82-0.99,32.09,0,32.09,0s-1.96,6.35-4.07,15.56c-1.24,5.42-5.12,18.56-5.12,18.56c2.55,1.5,5.26,1.12,7.99,0.62     c0,0,19.54-33.52,17.84-44.42c-1.7-10.9-64.65-8.14-64.65-8.14L232.04,354.53z"></path>			</g>		</g>		<g>			<path fill="#007EFF" d="M271.22,345.84c-8.86-5.59-22.9-16.25-22.9-16.25s-8.84-17.1-14.03-34.84c0,0-5.9,6.8-1.81,22.02    c3.99,14.83,10.39,20.15,10.39,20.15s16.38,11.73,25.05,14.64C269.28,349.27,269.96,348.19,271.22,345.84z"></path>		</g>		<g>			<path fill="#0060E6" d="M311.98,352.7l-55.54,0.73c-0.99,0.01-1.81-0.78-1.82-1.77l-0.01-0.87c-0.01-0.99,0.78-1.81,1.77-1.82    l55.54-0.73c0.99-0.01,1.81,0.78,1.82,1.77l0.01,0.87C313.77,351.87,312.97,352.69,311.98,352.7z"></path>			<g>				<g>					<polygon fill="#00A0FF" points="313.78,352.68 265.32,353.32 279.75,326.71 328.12,326.23      "></polygon>					<polygon fill="#0060E6" points="310.77,352.71 310.77,352.72 262.4,353.19 276.74,326.75 279.75,326.72 265.41,353.15      "></polygon>				</g>				<path fill="#007EFF" d="M300.46,339.64c0.02,1.7-1.34,3.1-3.04,3.12s-3.1-1.34-3.12-3.04s1.34-3.1,3.04-3.12     S300.43,337.94,300.46,339.64z"></path>			</g>		</g>	</g>	<g>		<ellipse fill="#D9E4F5" cx="438.23" cy="437.09" rx="40.54" ry="7.9"></ellipse>		<g>			<g>				<g>					<path fill="#007EFF" d="M411.24,353.55v81.92c0,1.8,1.46,3.26,3.26,3.26h47.48c0.91,0,1.73-0.37,2.32-0.97      c0.58-0.59,0.94-1.39,0.94-2.29v-81.92c0-1.8-1.46-3.26-3.26-3.26H414.5c-0.64,0-1.24,0.19-1.75,0.51      C411.84,351.38,411.24,352.39,411.24,353.55z"></path>					<g>						<path fill="#00A0FF" d="M426.03,366.09h31.7c1.24,0,2.24-1,2.24-2.24l0,0c0-1.24-1.01-2.24-2.24-2.24h-31.7       c-1.24,0-2.24,1.01-2.24,2.24l0,0C423.79,365.09,424.79,366.09,426.03,366.09z"></path>						<path fill="#00A0FF" d="M426.03,376.31h31.7c1.24,0,2.24-1,2.24-2.24l0,0c0-1.24-1.01-2.24-2.24-2.24h-31.7       c-1.24,0-2.24,1-2.24,2.24l0,0C423.79,375.31,424.79,376.31,426.03,376.31z"></path>						<path fill="#00A0FF" d="M426.03,386.53h31.7c1.24,0,2.24-1.01,2.24-2.24l0,0c0-1.24-1.01-2.24-2.24-2.24h-31.7       c-1.24,0-2.24,1.01-2.24,2.24l0,0C423.79,385.53,424.79,386.53,426.03,386.53z"></path>						<path fill="#00A0FF" d="M426.03,396.76h31.7c1.24,0,2.24-1.01,2.24-2.24l0,0c0-1.24-1.01-2.24-2.24-2.24h-31.7       c-1.24,0-2.24,1.01-2.24,2.24l0,0C423.79,395.75,424.79,396.76,426.03,396.76z"></path>						<path fill="#00A0FF" d="M426.03,406.98h31.7c1.24,0,2.24-1.01,2.24-2.24l0,0c0-1.24-1.01-2.24-2.24-2.24h-31.7       c-1.24,0-2.24,1.01-2.24,2.24l0,0C423.79,405.97,424.79,406.98,426.03,406.98z"></path>						<path fill="#00A0FF" d="M426.03,417.2h31.7c1.24,0,2.24-1,2.24-2.24l0,0c0-1.24-1.01-2.24-2.24-2.24h-31.7       c-1.24,0-2.24,1.01-2.24,2.24l0,0C423.79,416.2,424.79,417.2,426.03,417.2z"></path>						<path fill="#00A0FF" d="M426.03,427.42h31.7c1.24,0,2.24-1.01,2.24-2.24l0,0c0-1.24-1.01-2.24-2.24-2.24h-31.7       c-1.24,0-2.24,1.01-2.24,2.24l0,0C423.79,426.42,424.79,427.42,426.03,427.42z"></path>					</g>					<g>						<g>							<path fill="#021147" d="M417.38,362.56c0,0.53,0.43,0.96,0.96,0.96s0.96-0.43,0.96-0.96s-0.43-0.96-0.96-0.96        C417.81,361.6,417.38,362.03,417.38,362.56z"></path>						</g>						<path fill="#00A0FF" d="M417.38,365.13c0,0.53,0.43,0.96,0.96,0.96s0.96-0.43,0.96-0.96s-0.43-0.96-0.96-0.96       C417.81,364.17,417.38,364.6,417.38,365.13z"></path>						<path fill="#FFFFFF" d="M417.38,372.79c0,0.53,0.43,0.96,0.96,0.96s0.96-0.43,0.96-0.96s-0.43-0.96-0.96-0.96       C417.81,371.82,417.38,372.25,417.38,372.79z"></path>						<path fill="#00A0FF" d="M417.38,375.35c0,0.53,0.43,0.96,0.96,0.96s0.96-0.43,0.96-0.96s-0.43-0.96-0.96-0.96       C417.81,374.39,417.38,374.82,417.38,375.35z"></path>						<path fill="#FFFFFF" d="M417.38,393.23c0,0.53,0.43,0.96,0.96,0.96s0.96-0.43,0.96-0.96s-0.43-0.96-0.96-0.96       C417.81,392.27,417.38,392.7,417.38,393.23z"></path>						<path fill="#00A0FF" d="M417.38,395.8c0,0.53,0.43,0.96,0.96,0.96s0.96-0.43,0.96-0.96s-0.43-0.96-0.96-0.96       C417.81,394.83,417.38,395.26,417.38,395.8z"></path>						<g>							<path fill="#021147" d="M417.38,383.01c0,0.53,0.43,0.96,0.96,0.96s0.96-0.43,0.96-0.96s-0.43-0.96-0.96-0.96        C417.81,382.05,417.38,382.48,417.38,383.01z"></path>						</g>						<path fill="#00A0FF" d="M417.38,385.57c0,0.53,0.43,0.96,0.96,0.96s0.96-0.43,0.96-0.96s-0.43-0.96-0.96-0.96       C417.81,384.61,417.38,385.04,417.38,385.57z"></path>					</g>					<g>						<g>							<path fill="#021147" d="M417.38,403.45c0,0.53,0.43,0.96,0.96,0.96s0.96-0.43,0.96-0.96s-0.43-0.96-0.96-0.96        C417.81,402.49,417.38,402.92,417.38,403.45z"></path>						</g>						<path fill="#00A0FF" d="M417.38,406.02c0,0.53,0.43,0.96,0.96,0.96s0.96-0.43,0.96-0.96s-0.43-0.96-0.96-0.96       C417.81,405.06,417.38,405.49,417.38,406.02z"></path>						<path fill="#FFFFFF" d="M417.38,413.67c0,0.53,0.43,0.96,0.96,0.96s0.96-0.43,0.96-0.96s-0.43-0.96-0.96-0.96       C417.81,412.71,417.38,413.14,417.38,413.67z"></path>						<path fill="#00A0FF" d="M417.38,416.24c0,0.53,0.43,0.96,0.96,0.96s0.96-0.43,0.96-0.96s-0.43-0.96-0.96-0.96       C417.81,415.28,417.38,415.71,417.38,416.24z"></path>						<g>							<path fill="#021147" d="M417.38,423.89c0,0.53,0.43,0.96,0.96,0.96s0.96-0.43,0.96-0.96s-0.43-0.96-0.96-0.96        C417.81,422.93,417.38,423.36,417.38,423.89z"></path>						</g>						<path fill="#00A0FF" d="M417.38,426.46c0,0.53,0.43,0.96,0.96,0.96s0.96-0.43,0.96-0.96s-0.43-0.96-0.96-0.96       C417.81,425.5,417.38,425.93,417.38,426.46z"></path>					</g>					<path fill="#0060E6" d="M421.54,350.29h33.4l0,0c0-2.04-1.65-3.7-3.7-3.7h-26.01C423.19,346.6,421.54,348.25,421.54,350.29      L421.54,350.29z"></path>				</g>			</g>			<g>				<polygon fill="#00A0FF" points="418.59,268.67 418.59,270.89 437.19,270.89 437.19,346.6 439.41,346.6 439.41,268.67     "></polygon>			</g>		</g>	</g>	<g>		<path fill="#0060E6" d="M441.11,269.79c0,1.59-1.29,2.88-2.88,2.88s-2.88-1.29-2.88-2.88s1.29-2.88,2.88-2.88   S441.11,268.2,441.11,269.79z"></path>	</g></g></svg>