<svg xmlns="http://www.w3.org/2000/svg" id="Layer_1" height="512" viewBox="0 0 512 512" width="512" data-name="Layer 1"><path d="m255.747.422c141.384 0 256.007 114.587 256.007 255.963s-114.623 256.035-256.007 256.035-256-114.659-256-256.035 114.624-255.963 256-255.963zm3.811 205.288a3.809 3.809 0 1 0 -7.617 0v28.062a3.809 3.809 0 1 0 7.617 0zm-3.809-7.276a23.51 23.51 0 1 0 -23.5-23.514 23.536 23.536 0 0 0 23.5 23.514zm-2.365 143.108a3.8 3.8 0 0 0 4.734 0 46.152 46.152 0 0 0 17.3-41.363c-.009-.069-.012-.138-.027-.209a45.475 45.475 0 0 0 -9.082-20.64 3.807 3.807 0 0 0 -3-1.455h-15.12a3.8 3.8 0 0 0 -2.994 1.455 45.512 45.512 0 0 0 -9.085 20.64c-.012.071-.018.14-.033.209a46.166 46.166 0 0 0 17.307 41.363zm-139.547-150.548v180.634h81.763a3.819 3.819 0 0 1 3.3 1.905l10.354 17.932h92.992l10.354-17.932a3.812 3.812 0 0 1 3.3-1.905h81.764v-180.634a4.943 4.943 0 0 0 -4.931-4.938h-84.3q.539 5.065.7 10.156h74.567a3.813 3.813 0 0 1 3.809 3.809v153.264a3.815 3.815 0 0 1 -3.809 3.809h-255.9a3.813 3.813 0 0 1 -3.809-3.809v-153.264a3.811 3.811 0 0 1 3.809-3.809h74.563c.117-3.389.344-6.779.707-10.156h-84.3a4.941 4.941 0 0 0 -4.931 4.938zm110.853-50.235a126.878 126.878 0 0 0 -14.064 73.365 123.762 123.762 0 0 0 7.68 26.927h74.884a123.609 123.609 0 0 0 7.686-26.927 126.9 126.9 0 0 0 -14.067-73.365 61.521 61.521 0 0 1 -62.119 0zm-35.437 78.362 11.2-15.291h-68.845v145.647h248.283v-145.647h-68.846l11.2 15.291a3.815 3.815 0 0 1 .7 2.749l-9.211 70.587a3.812 3.812 0 0 1 -2.829 3.192 3.864 3.864 0 0 1 -.949.12 3.813 3.813 0 0 1 -3.07-1.554l-19.417-26.5q-2.592 3.84-5.456 7.489a3.777 3.777 0 0 1 -2.988 1.455h-46.559a3.777 3.777 0 0 1 -2.988-1.455q-2.865-3.643-5.452-7.489l-19.418 26.5a3.813 3.813 0 0 1 -6.851-1.758l-9.211-70.587a3.831 3.831 0 0 1 .707-2.749zm222.015 152.507h-5.985v-180.634a12.572 12.572 0 0 0 -12.549-12.556h-85.351a134.736 134.736 0 0 0 -49.265-83.692 3.811 3.811 0 0 0 -4.734 0 134.726 134.726 0 0 0 -49.268 83.692h-85.348a12.571 12.571 0 0 0 -12.549 12.556v180.634h-5.985a6.992 6.992 0 0 0 -6.983 6.983v16.663a23.669 23.669 0 0 0 23.643 23.645h277.711a23.672 23.672 0 0 0 23.646-23.645v-16.663a6.992 6.992 0 0 0 -6.983-6.983zm-31.586 23.646a3.8 3.8 0 0 0 3.809 3.809h.209a3.809 3.809 0 1 0 0-7.618h-.209a3.809 3.809 0 0 0 -3.809 3.809zm-16.289 0a3.809 3.809 0 0 0 3.809 3.809h.21a3.809 3.809 0 0 0 0-7.618h-.21a3.815 3.815 0 0 0 -3.809 3.809zm-16.289 0a3.809 3.809 0 0 0 3.809 3.809h.219a3.809 3.809 0 0 0 0-7.618h-.219a3.815 3.815 0 0 0 -3.809 3.809zm-190.542 0a3.806 3.806 0 0 0 3.808 3.809h.216a3.809 3.809 0 0 0 0-7.618h-.216a3.812 3.812 0 0 0 -3.808 3.809zm-12.474-3.809a3.809 3.809 0 1 0 0 7.618h.209a3.809 3.809 0 0 0 0-7.618zm-12.271 3.809a3.808 3.808 0 0 0 -3.805-3.809h-.21a3.809 3.809 0 1 0 0 7.618h.21a3.8 3.8 0 0 0 3.805-3.809z" fill="#0291f7" fill-rule="evenodd"></path></svg>