<svg xmlns="http://www.w3.org/2000/svg" height="682.66669pt" viewBox="-21 -21 682.66669 682.66669" width="682.66669pt"><path d="m490 245c0 67.5-27.375 128.246094-71.25 172.5-44.253906 43.875-106.25 71.25-173.75 71.25-134.625 0-245-109.125-245-243.75 0-67.5 27.375-129.496094 71.25-173.75 44.253906-43.875 106.25-71.25 173.75-71.25s129.496094 27.375 173.75 71.25c43.875 44.253906 71.25 106.25 71.25 173.75zm0 0" fill="#7ed8f6"></path><path d="m490 245c0 67.5-27.375 128.246094-71.25 172.5-44.253906 43.875-106.25 71.25-173.75 71.25v-488.75c67.5 0 129.496094 27.375 173.75 71.25 43.875 44.253906 71.25 106.25 71.25 173.75zm0 0" fill="#6aa9ff"></path><path d="m452.5 245c0 113.628906-93.871094 206.25-207.5 206.25s-207.5-92.621094-207.5-206.25 93.871094-207.5 207.5-207.5 207.5 93.871094 207.5 207.5zm0 0" fill="#f2f6fc"></path><path d="m452.5 245c0 113.628906-93.871094 206.25-207.5 206.25v-413.75c113.628906 0 207.5 93.871094 207.5 207.5zm0 0" fill="#dce1eb"></path><path d="m415 226.25v37.5h-188.75v-188.75h37.5v151.25zm0 0" fill="#575f64"></path><path d="m471.25 301.25c-93 0-168.75 75.75-168.75 168.75s75.75 170 168.75 170 168.75-77 168.75-170-75.75-168.75-168.75-168.75zm0 0" fill="#4bb9ec"></path><path d="m415 226.25v37.5h-170v-188.75h18.75v151.25zm0 0" fill="#32393f"></path><path d="m640 470c0 93-75.75 170-168.75 170v-338.75c93 0 168.75 75.75 168.75 168.75zm0 0" fill="#0095ff"></path><path d="m559.375 445.625-88.125 88.5-18.75 18.75-69.375-69.75 26.25-26.25 43.125 42.75 18.75-18.75 61.875-61.5zm0 0" fill="#f2f6fc"></path><path d="m559.375 445.625-88.125 88.5v-53.25l61.875-61.5zm0 0" fill="#dce1eb"></path></svg>