<svg xmlns="http://www.w3.org/2000/svg" xmlns:xlink="http://www.w3.org/1999/xlink" width="512" height="512" x="0" y="0" viewBox="0 0 512 512" style="enable-background:new 0 0 512 512" xml:space="preserve" class=""><g><circle cx="256" cy="256" r="245" style="" fill="#108aff" data-original="#ffaf10" opacity="1"></circle><path d="M174.63 379.83h108V426h-108z" style="" fill="#445ea0" data-original="#445ea0"></path><path d="M174.63 379.83h19.842V426H174.63z" style="" fill="#2e4c89" data-original="#2e4c89"></path><path d="M333.134 450c0 2.75-2.25 5-5 5H129.131c-2.75 0-5-2.25-5-5v-20c0-2.75 2.25-5 5-5h199.003c2.75 0 5 2.25 5 5v20z" style="" fill="#293d7c" data-original="#293d7c"></path><path d="M143.973 450v-20c0-2.75 2.25-5 5-5h-19.842c-2.75 0-5 2.25-5 5v20c0 2.75 2.25 5 5 5h19.842c-2.75 0-5-2.25-5-5z" style="" fill="#1a2b63" data-original="#1a2b63"></path><path d="M0 370.834c0 5.5 4.5 10 10 10h300.175v-66.951H0v56.951z" style="" fill="#293d7c" data-original="#293d7c"></path><path d="M19.842 370.834v-56.951H0v56.951c0 5.5 4.5 10 10 10h19.842c-5.5 0-10-4.5-10-10z" style="" fill="#1a2b63" data-original="#1a2b63"></path><path d="M310.175 286.987c0-2.206 1.794-4 4-4h143.09V66.465c0-6.046-4.946-10.992-10.991-10.992H10.992C4.946 55.473 0 60.419 0 66.465v248.418h310.175v-27.896z" style="" fill="#445ea0" data-original="#445ea0"></path><path d="M310.175 286.987c0-2.206 1.794-4 4-4h121.107V82.457c0-2.75-2.25-5-5-5H26.984c-2.75 0-5 2.25-5 5v205.441c0 2.75 2.25 5 5 5h283.19l.001-5.911z" style="" fill="#eef6ff" data-original="#eef6ff" class=""></path><circle cx="228.63" cy="348.21" r="13.911" style="" fill="#445ea0" data-original="#445ea0"></circle><path d="M416.361 206.376c0 2.75-2.25 5-5 5H252.904c-2.75 0-5-2.25-5-5v-72.718c0-2.75 2.25-5 5-5h158.457c2.75 0 5 2.25 5 5v72.718z" style="" fill="#108aff" data-original="#ffaf10" opacity="1"></path><path d="M267.747 206.376v-72.718c0-2.75 2.25-5 5-5h-19.842c-2.75 0-5 2.25-5 5v72.718c0 2.75 2.25 5 5 5h19.842c-2.75 0-5-2.25-5-5z" style="" fill="#1863ff" data-original="#ff9518" class="" opacity="1"></path><path d="M299.266 240.121h-43.112c-4.142 0-7.5-3.357-7.5-7.5s3.358-7.5 7.5-7.5h43.112c4.142 0 7.5 3.357 7.5 7.5s-3.358 7.5-7.5 7.5zM299.266 262.916h-43.112c-4.142 0-7.5-3.357-7.5-7.5s3.358-7.5 7.5-7.5h43.112c4.142 0 7.5 3.357 7.5 7.5s-3.358 7.5-7.5 7.5zM351.28 240.121h-32.06c-4.142 0-7.5-3.357-7.5-7.5s3.358-7.5 7.5-7.5h32.06c4.142 0 7.5 3.357 7.5 7.5s-3.358 7.5-7.5 7.5zM351.28 262.916h-32.06c-4.142 0-7.5-3.357-7.5-7.5s3.358-7.5 7.5-7.5h32.06c4.142 0 7.5 3.357 7.5 7.5s-3.358 7.5-7.5 7.5zM411.772 240.121h-40.836c-4.142 0-7.5-3.357-7.5-7.5s3.358-7.5 7.5-7.5h40.836c4.142 0 7.5 3.357 7.5 7.5s-3.358 7.5-7.5 7.5zM411.772 262.916h-40.836c-4.142 0-7.5-3.357-7.5-7.5s3.358-7.5 7.5-7.5h40.836c4.142 0 7.5 3.357 7.5 7.5s-3.358 7.5-7.5 7.5z" style="" fill="#c3ddf4" data-original="#c3ddf4" class=""></path><path d="M359.365 111.084c0 2.75-2.25 5-5 5h-10.999c-2.75 0-5-2.25-5-5v-10.999c0-2.75 2.25-5 5-5h10.999c2.75 0 5 2.25 5 5v10.999zM387.363 111.084c0 2.75-2.25 5-5 5h-10.999c-2.75 0-5-2.25-5-5v-10.999c0-2.75 2.25-5 5-5h10.999c2.75 0 5 2.25 5 5v10.999zM415.361 111.084c0 2.75-2.25 5-5 5h-10.999c-2.75 0-5-2.25-5-5v-10.999c0-2.75 2.25-5 5-5h10.999c2.75 0 5 2.25 5 5v10.999z" style="" fill="#1854ef" data-original="#ef8318" class="" opacity="1"></path><path d="M190.898 257.005h-9c-4.142 0-7.5-3.357-7.5-7.5s3.358-7.5 7.5-7.5h9a7.5 7.5 0 0 1 7.5 7.5 7.5 7.5 0 0 1-7.5 7.5zM156.898 257.005h-9c-4.142 0-7.5-3.357-7.5-7.5s3.358-7.5 7.5-7.5h9a7.5 7.5 0 0 1 7.5 7.5 7.5 7.5 0 0 1-7.5 7.5zM122.897 257.005h-9c-4.142 0-7.5-3.357-7.5-7.5s3.358-7.5 7.5-7.5h9a7.5 7.5 0 0 1 7.5 7.5 7.498 7.498 0 0 1-7.5 7.5zM88.897 257.005h-9c-4.142 0-7.5-3.357-7.5-7.5s3.358-7.5 7.5-7.5h9a7.5 7.5 0 0 1 7.5 7.5c0 4.143-3.357 7.5-7.5 7.5zM220.148 226.106a7.5 7.5 0 0 1-7.5-7.5v-9a7.5 7.5 0 0 1 15 0v9a7.5 7.5 0 0 1-7.5 7.5zM220.148 192.106a7.5 7.5 0 0 1-7.5-7.5v-9a7.5 7.5 0 0 1 15 0v9a7.5 7.5 0 0 1-7.5 7.5zM220.148 158.106a7.5 7.5 0 0 1-7.5-7.5v-9a7.5 7.5 0 0 1 15 0v9a7.5 7.5 0 0 1-7.5 7.5zM50.147 226.106a7.5 7.5 0 0 1-7.5-7.5v-9a7.5 7.5 0 0 1 15 0v9c0 4.143-3.357 7.5-7.5 7.5zM50.147 192.106a7.5 7.5 0 0 1-7.5-7.5v-9a7.5 7.5 0 0 1 15 0v9c0 4.143-3.357 7.5-7.5 7.5zM50.147 158.106a7.5 7.5 0 0 1-7.5-7.5v-9a7.5 7.5 0 0 1 15 0v9c0 4.143-3.357 7.5-7.5 7.5zM190.898 121.005h-9c-4.142 0-7.5-3.357-7.5-7.5s3.358-7.5 7.5-7.5h9c4.142 0 7.5 3.357 7.5 7.5s-3.358 7.5-7.5 7.5zM156.898 121.005h-9c-4.142 0-7.5-3.357-7.5-7.5s3.358-7.5 7.5-7.5h9c4.142 0 7.5 3.357 7.5 7.5s-3.358 7.5-7.5 7.5zM122.897 121.005h-9c-4.142 0-7.5-3.357-7.5-7.5s3.358-7.5 7.5-7.5h9c4.142 0 7.5 3.357 7.5 7.5s-3.357 7.5-7.5 7.5zM88.897 121.005h-9c-4.142 0-7.5-3.357-7.5-7.5s3.358-7.5 7.5-7.5h9c4.142 0 7.5 3.357 7.5 7.5s-3.357 7.5-7.5 7.5z" style="" fill="#69cdff" data-original="#69cdff"></path><path d="M200.148 224.505c0 2.75-2.25 5-5 5h-120c-2.75 0-5-2.25-5-5v-86c0-2.75 2.25-5 5-5h120c2.75 0 5 2.25 5 5v86z" style="" fill="#5dc1d8" data-original="#5dc1d8"></path><path d="M89.99 224.505v-86c0-2.75 2.25-5 5-5H75.147c-2.75 0-5 2.25-5 5v86c0 2.75 2.25 5 5 5H94.99c-2.75 0-5-2.25-5-5z" style="" fill="#28a5a5" data-original="#28a5a5"></path><path d="M234.145 121.009c0 2.75-2.25 5-5 5h-21c-2.75 0-5-2.25-5-5v-21c0-2.75 2.25-5 5-5h21c2.75 0 5 2.25 5 5v21zM68.145 123.009c0 2.75-2.25 5-5 5h-21c-2.75 0-5-2.25-5-5v-21c0-2.75 2.25-5 5-5h21c2.75 0 5 2.25 5 5v21zM234.145 260.883c0 2.75-2.25 5-5 5h-21c-2.75 0-5-2.25-5-5v-21c0-2.75 2.25-5 5-5h21c2.75 0 5 2.25 5 5v21zM68.145 260.883c0 2.75-2.25 5-5 5h-21c-2.75 0-5-2.25-5-5v-21c0-2.75 2.25-5 5-5h21c2.75 0 5 2.25 5 5v21z" style="" fill="#52bbef" data-original="#52bbef" class=""></path><path d="M214.167 121.009v-21c0-2.75 2.25-5 5-5h-11.022c-2.75 0-5 2.25-5 5v21c0 2.75 2.25 5 5 5h11.022c-2.75 0-5-2.25-5-5zM48.167 123.009v-21c0-2.75 2.25-5 5-5H42.145c-2.75 0-5 2.25-5 5v21c0 2.75 2.25 5 5 5h11.022c-2.75 0-5-2.25-5-5zM214.167 260.883v-21c0-2.75 2.25-5 5-5h-11.022c-2.75 0-5 2.25-5 5v21c0 2.75 2.25 5 5 5h11.022c-2.75 0-5-2.25-5-5zM48.167 260.883v-21c0-2.75 2.25-5 5-5H42.145c-2.75 0-5 2.25-5 5v21c0 2.75 2.25 5 5 5h11.022c-2.75 0-5-2.25-5-5z" style="" fill="#1e99d6" data-original="#1e99d6" class=""></path><path d="M435.458 366.773c-.155-.422-.143-.662-.121-.74.001 0 .062-.006.119-.006.114 0 .313.023.614.134l42.104 15.465v-94.638c0-2.75-2.25-5-5-5h-159c-2.75 0-5 2.25-5 5v114.8c0 2.75 2.25 5 5 5h135.98l-14.696-40.015z" style="" fill="#5dc1d8" data-original="#5dc1d8"></path><path d="M329.017 401.787v-114.8c0-2.75 2.25-5 5-5h-19.842c-2.75 0-5 2.25-5 5v114.8c0 2.75 2.25 5 5 5h19.842c-2.75 0-5-2.25-5-5z" style="" fill="#28a5a5" data-original="#28a5a5"></path><path d="M436.415 365.222c-1.647-.605-2.501.248-1.896 1.896l26.365 71.782c.605 1.648 2.116 1.98 3.357.739l13.997-13.997a3.203 3.203 0 0 1 4.515 0l16.128 16.13a3.202 3.202 0 0 0 4.514 0l7.674-7.674a3.202 3.202 0 0 0 0-4.514l-16.129-16.129a3.202 3.202 0 0 1 0-4.514l13.996-13.997c1.242-1.24.909-2.751-.739-3.356l-71.782-26.366z" style="" fill="#293d7c" data-original="#293d7c"></path></g></svg>