<svg xmlns="http://www.w3.org/2000/svg" height="512" viewBox="0 0 24 24" width="512"><g id="Layer_2" data-name="Layer 2"><path d="m20.8 8.838a1.445 1.445 0 0 1 -.419-1.012v-1.278a2.934 2.934 0 0 0 -2.931-2.93h-1.276a1.425 1.425 0 0 1 -1.012-.418l-1.09-1.091a2.934 2.934 0 0 0 -4.144 0l-1.09 1.091a1.425 1.425 0 0 1 -1.012.419h-1.277a2.934 2.934 0 0 0 -2.931 2.93v1.277a1.441 1.441 0 0 1 -.418 1.011l-1.092 1.091a2.934 2.934 0 0 0 0 4.144l1.092 1.09a1.445 1.445 0 0 1 .419 1.012v1.278a2.934 2.934 0 0 0 2.931 2.93h1.276a1.425 1.425 0 0 1 1.012.419l1.09 1.091a2.933 2.933 0 0 0 4.144 0l1.09-1.091a1.425 1.425 0 0 1 1.012-.419h1.277a2.934 2.934 0 0 0 2.931-2.93v-1.278a1.437 1.437 0 0 1 .419-1.011l1.091-1.091a2.934 2.934 0 0 0 0-4.144z" fill="#2196f3"></path><circle cx="12" cy="12" fill="#29b3ff" r="6.75"></circle><path d="m11 14.75a.744.744 0 0 1 -.53-.22l-2-2a.75.75 0 0 1 1.06-1.06l1.47 1.469 3.47-3.469a.75.75 0 0 1 1.06 1.06l-4 4a.744.744 0 0 1 -.53.22z" fill="#fff"></path></g></svg>